<svg width="60" height="60" viewBox="0 0 60 60" fill="none" xmlns="http://www.w3.org/2000/svg">
<g opacity="0.1" filter="url(#filter0_b_13_14)">
<rect width="60" height="60" fill="white"/>
</g>
<path d="M33.9664 32.8324H33.3431C33.1087 32.8328 32.8989 32.6866 32.8184 32.4664C32.7493 32.285 32.675 32.1077 32.5951 31.932C32.4958 31.7184 32.5412 31.4654 32.7085 31.2996L33.1527 30.8548C33.8122 30.1894 33.811 29.1165 33.1499 28.4527L31.5485 26.8513C30.8839 26.1906 29.8105 26.1906 29.1459 26.8513L28.7016 27.295C28.5354 27.4617 28.2829 27.5069 28.0692 27.4083C27.8935 27.3284 27.7162 27.2542 27.5343 27.1817C27.3129 27.1017 27.1657 26.8912 27.1665 26.6558V26.0325C27.1665 25.0936 26.4054 24.3325 25.4665 24.3325H23.1999C22.261 24.3325 21.4999 25.0936 21.4999 26.0325V26.6558C21.5003 26.8903 21.3541 27.1 21.1338 27.1805C20.9525 27.2497 20.7752 27.3239 20.5995 27.4038C20.3858 27.5026 20.1332 27.4574 19.9671 27.2905L19.5223 26.8462C18.8577 26.1859 17.7847 26.1859 17.1202 26.8462L15.5188 28.4527C14.8581 29.1173 14.8581 30.1907 15.5188 30.8553L15.9625 31.2996C16.1298 31.4654 16.1751 31.7184 16.0758 31.932C15.9959 32.1077 15.9217 32.285 15.852 32.4669C15.7709 32.6884 15.5592 32.8348 15.3233 32.8324H14.7C13.7611 32.8324 13 33.5935 13 34.5324V36.799C13 37.7379 13.7611 38.499 14.7 38.499H15.3233C15.5578 38.4986 15.7675 38.6449 15.848 38.8651C15.9172 39.0464 15.9914 39.2238 16.0713 39.3994C16.1706 39.6131 16.1253 39.866 15.958 40.0318L15.5137 40.4767C14.8534 41.1412 14.8534 42.2142 15.5137 42.8787L17.1151 44.4801C17.7797 45.1409 18.8531 45.1409 19.5177 44.4801L19.962 44.0364C20.1282 43.8698 20.3807 43.8245 20.5944 43.9231C20.7701 44.003 20.9474 44.0772 21.1293 44.1498C21.3518 44.2288 21.5003 44.4395 21.4999 44.6756V45.299C21.4999 46.2378 22.261 46.9989 23.1999 46.9989H25.4665C26.4054 46.9989 27.1665 46.2378 27.1665 45.299V44.6756C27.1661 44.4412 27.3124 44.2314 27.5326 44.1509C27.7139 44.0818 27.8913 44.0075 28.0669 43.9276C28.2806 43.8288 28.5332 43.8741 28.6993 44.041L29.1442 44.4852C29.8096 45.1445 30.8823 45.1432 31.5462 44.4824L33.1476 42.881C33.8084 42.2164 33.8084 41.143 33.1476 40.4784L32.7039 40.0341C32.5366 39.8683 32.4913 39.6153 32.5906 39.4017C32.6705 39.226 32.7447 39.0487 32.8173 38.8668C32.8972 38.6454 33.1077 38.4982 33.3431 38.499H33.9664C34.9053 38.499 35.6664 37.7379 35.6664 36.799V34.5324C35.6664 33.5935 34.9053 32.8324 33.9664 32.8324ZM34.5331 36.799C34.5331 37.112 34.2794 37.3657 33.9664 37.3657H33.3431C32.6387 37.3683 32.0083 37.8037 31.7565 38.4616C31.6964 38.6203 31.6315 38.7765 31.5615 38.9303C31.2702 39.5734 31.4054 40.3296 31.9015 40.832L32.3447 41.2757C32.5661 41.4968 32.5663 41.8556 32.3451 42.0771C32.3449 42.0772 32.3448 42.0773 32.3447 42.0775L30.7433 43.6789C30.522 43.9001 30.1633 43.9001 29.942 43.6789L29.4978 43.2352C28.9956 42.7386 28.2391 42.6033 27.596 42.8952C27.4425 42.9649 27.2861 43.03 27.1286 43.0901C26.4712 43.3418 26.036 43.9717 26.0332 44.6756V45.299C26.0332 45.6119 25.7795 45.8656 25.4665 45.8656H23.1999C22.887 45.8656 22.6332 45.6119 22.6332 45.299V44.6756C22.6306 43.9712 22.1952 43.3408 21.5373 43.089C21.3786 43.0289 21.2225 42.964 21.0687 42.894C20.4255 42.6029 19.6694 42.7381 19.167 43.234L18.7233 43.6772C18.5021 43.8986 18.1433 43.8988 17.9219 43.6776C17.9217 43.6775 17.9216 43.6773 17.9214 43.6772L16.3201 42.0775C16.0989 41.8562 16.0989 41.4975 16.3201 41.2762L16.7638 40.832C17.2599 40.3296 17.3951 39.5734 17.1038 38.9303C17.0341 38.7767 16.9689 38.6203 16.9088 38.4628C16.6577 37.8047 16.0277 37.3688 15.3233 37.3657H14.7C14.387 37.3657 14.1333 37.112 14.1333 36.799V34.5324C14.1333 34.2195 14.387 33.9657 14.7 33.9657H15.3233C16.0277 33.9631 16.6581 33.5277 16.91 32.8698C16.97 32.7112 17.035 32.555 17.1049 32.4012C17.3962 31.758 17.261 31.0018 16.7649 30.4995L16.3195 30.0558C16.0981 29.8346 16.0979 29.4758 16.3191 29.2544C16.3192 29.2542 16.3194 29.2541 16.3195 29.254L17.9209 27.6526C18.1422 27.4314 18.5009 27.4314 18.7221 27.6526L19.1664 28.0963C19.6685 28.5929 20.425 28.7281 21.0681 28.4363C21.2217 28.3666 21.3781 28.3014 21.5356 28.2413C22.1939 27.9904 22.63 27.3603 22.6332 26.6558V26.0325C22.6332 25.7195 22.887 25.4658 23.1999 25.4658H25.4665C25.7795 25.4658 26.0332 25.7195 26.0332 26.0325V26.6558C26.0358 27.3602 26.4712 27.9907 27.1291 28.2425C27.2878 28.3025 27.444 28.3675 27.5977 28.4374C28.2408 28.7292 28.9973 28.594 29.4995 28.0974L29.9432 27.6543C30.1653 27.4345 30.5229 27.4345 30.745 27.6543L32.3464 29.2557C32.5676 29.4769 32.5676 29.8356 32.3464 30.0569L31.9027 30.5012C31.4066 31.0035 31.2713 31.7597 31.5627 32.4029C31.6324 32.5565 31.6975 32.7129 31.7576 32.8704C32.0093 33.5278 32.6392 33.9629 33.3431 33.9657H33.9664C34.2794 33.9657 34.5331 34.2195 34.5331 34.5324V36.799V36.799Z" fill="white"/>
<path d="M29.4203 35.4387C29.4146 35.3027 29.405 35.1673 29.3886 35.0324C29.3704 34.8874 29.3489 34.7434 29.3189 34.6023C29.299 34.51 29.273 34.4187 29.248 34.3269C29.2163 34.2102 29.1806 34.0952 29.1409 33.9818C29.1132 33.9031 29.0843 33.8249 29.0548 33.7472C28.9818 33.5658 28.8984 33.3886 28.8049 33.2169C28.7975 33.2038 28.793 33.1897 28.7856 33.1766C28.6382 32.9143 28.4675 32.6656 28.2756 32.4337C28.2592 32.4133 28.2405 32.3941 28.2235 32.3742C28.1453 32.2819 28.0648 32.1923 27.9804 32.1068C27.9362 32.0609 27.8897 32.0178 27.8433 31.9736C27.7866 31.9209 27.7299 31.8688 27.6733 31.8189C27.6045 31.7592 27.5344 31.7014 27.463 31.6455L27.3701 31.5764C26.4933 30.9196 25.4272 30.5649 24.3317 30.5654C24.275 30.5654 24.2183 30.5739 24.1617 30.5762C24.041 30.5796 23.9197 30.5864 23.7979 30.5989C23.7338 30.6057 23.6693 30.613 23.6052 30.6221C23.4205 30.6464 23.2372 30.6807 23.0561 30.7247C20.3276 31.4297 18.6872 34.2133 19.3923 36.9419C19.857 38.7399 21.2617 40.1435 23.0601 40.6067C23.0692 40.6067 23.0788 40.6095 23.0884 40.6118C23.2841 40.6606 23.4824 40.6985 23.6823 40.7251C23.8143 40.7415 23.9463 40.7449 24.0789 40.7512C24.1673 40.7557 24.2489 40.7687 24.3413 40.7687C24.5028 40.7687 24.6705 40.758 24.8417 40.741C24.8598 40.741 24.8779 40.7359 24.8983 40.7336C25.036 40.7183 25.1754 40.6979 25.3177 40.6696C25.3743 40.6588 25.427 40.6446 25.4814 40.6322C25.5812 40.6089 25.6803 40.5846 25.7823 40.5545C25.8617 40.5307 25.9387 40.503 26.0164 40.4758C26.094 40.4486 26.1745 40.4191 26.2549 40.3885C26.3354 40.3579 26.4028 40.3228 26.4759 40.2888C26.5711 40.2451 26.6658 40.2021 26.7593 40.1511H26.7627C27.2915 39.868 27.7799 39.5152 28.215 39.1022C28.3325 38.9925 28.4347 38.8675 28.5187 38.7305C28.961 38.0214 29.2516 37.2285 29.3721 36.4015C29.388 36.2921 29.4022 36.1828 29.4107 36.0711C29.4186 35.9686 29.4243 35.8666 29.4265 35.7646C29.4265 35.7323 29.4311 35.7017 29.4311 35.6694C29.4316 35.5895 29.4237 35.5158 29.4203 35.4387ZM28.2909 35.8099C28.2909 35.8569 28.287 35.904 28.2841 35.9504C28.2739 36.0876 28.2564 36.2247 28.2331 36.3624C28.0213 37.5405 27.2899 38.5605 26.2419 39.139C26.1716 39.1759 26.1025 39.2104 26.0334 39.2422L25.9863 39.2648C25.6571 39.4143 25.3096 39.5195 24.9527 39.5776C24.9278 39.5816 24.9023 39.5861 24.8768 39.5895C24.806 39.5997 24.7363 39.6082 24.6671 39.6145C24.5759 39.6224 24.4841 39.6269 24.3906 39.6286C24.3509 39.6286 24.3118 39.6286 24.2722 39.6286C24.1381 39.6271 24.0042 39.6188 23.871 39.6037L23.803 39.5958C23.6471 39.5754 23.4926 39.5462 23.34 39.5085C21.2177 38.9653 19.9376 36.8045 20.4808 34.6822C20.8397 33.2798 21.9341 32.1843 23.3361 31.824V31.8234C23.6616 31.7413 23.9959 31.6994 24.3317 31.6988C24.4937 31.6997 24.6555 31.7107 24.8162 31.7316C24.8592 31.7367 24.9017 31.7447 24.9442 31.7509C25.0666 31.7702 25.1879 31.7945 25.3075 31.8251C25.3466 31.8353 25.3857 31.8444 25.4242 31.8552C25.7255 31.9421 26.0156 32.0643 26.2884 32.219C26.332 32.2445 26.3745 32.2711 26.4176 32.2977C26.5071 32.3544 26.5938 32.4111 26.6794 32.4757C26.7253 32.5091 26.7717 32.542 26.8159 32.5777C26.9271 32.6665 27.0336 32.761 27.1349 32.861C27.1752 32.9018 27.212 32.9466 27.2511 32.9891C27.3163 33.0599 27.3797 33.1324 27.4404 33.2089C27.4823 33.2616 27.5225 33.316 27.5622 33.371C27.6189 33.4526 27.6755 33.5376 27.7265 33.6237C27.7549 33.6707 27.7832 33.7166 27.8121 33.7648C27.8852 33.8993 27.9503 34.038 28.007 34.1802C28.0297 34.2368 28.049 34.2935 28.0694 34.3502C28.1062 34.4544 28.1379 34.5598 28.1657 34.6664C28.1799 34.723 28.1957 34.7735 28.2076 34.8284C28.2407 34.9816 28.2647 35.1366 28.2796 35.2925C28.283 35.3339 28.283 35.3758 28.2858 35.4172C28.2938 35.5475 28.296 35.6784 28.2909 35.8099Z" fill="white"/>
<path d="M45.3007 24.8999H43.5186C43.2809 24.9023 43.0683 24.7526 42.9904 24.5281C42.8147 24.0018 42.602 23.4884 42.3541 22.9919C42.2488 22.7775 42.2927 22.5198 42.4629 22.3522L43.7265 21.0868C44.3898 20.423 44.3898 19.3474 43.7265 18.6836L41.3171 16.2781C40.6533 15.6149 39.5776 15.6149 38.9139 16.2781L37.6508 17.5407C37.4834 17.7108 37.226 17.7549 37.0116 17.65C36.5151 17.4008 36.0015 17.187 35.4748 17.0103C35.2494 16.9331 35.0987 16.7203 35.1008 16.4821V14.7C35.1008 13.7611 34.3397 13 33.4008 13H30.0009C29.062 13 28.3009 13.7611 28.3009 14.7V16.4821C28.3033 16.7198 28.1537 16.9323 27.9291 17.0103C27.4027 17.1869 26.8893 17.4005 26.3929 17.6495C26.1785 17.7551 25.9206 17.7112 25.7532 17.5407L24.4878 16.277C23.8233 15.6156 22.7492 15.6156 22.0846 16.277L19.6797 18.6819C19.0161 19.3458 19.0161 20.4218 19.6797 21.0857L21.5378 22.9472C21.7625 23.1649 22.1213 23.1592 22.339 22.9344C22.5515 22.7151 22.552 22.3669 22.3402 22.147L20.481 20.2861C20.2597 20.0648 20.2597 19.7061 20.481 19.4849L22.8859 17.08C23.1071 16.8587 23.4658 16.8587 23.6871 17.08L24.953 18.3436C25.4652 18.8588 26.2501 18.9876 26.9001 18.6632C27.349 18.4385 27.8131 18.2455 28.289 18.0858C28.9759 17.8532 29.4372 17.2074 29.4342 16.4821V14.7C29.4342 14.387 29.6879 14.1333 30.0009 14.1333H33.4008C33.7138 14.1333 33.9675 14.387 33.9675 14.7V16.4821C33.9646 17.2072 34.4258 17.8529 35.1127 18.0852C35.5888 18.245 36.0532 18.4381 36.5022 18.6632C37.1523 18.9859 37.9361 18.857 38.4486 18.343L39.7146 17.08C39.9358 16.8587 40.2945 16.8587 40.5158 17.08L42.9207 19.4854C43.1416 19.7066 43.1416 20.0649 42.9207 20.2861L41.6571 21.552C41.1423 22.0645 41.0136 22.849 41.3375 23.4991C41.5622 23.948 41.7552 24.4121 41.9149 24.888C42.1473 25.5751 42.7932 26.0363 43.5186 26.0332H45.3007C45.6136 26.0332 45.8674 26.2869 45.8674 26.5999V29.9998C45.8674 30.3128 45.6136 30.5665 45.3007 30.5665H43.5186C42.7934 30.5636 42.1478 31.0248 41.9155 31.7117C41.7557 32.1878 41.5626 32.6521 41.3375 33.1012C41.0142 33.7513 41.1432 34.5353 41.6576 35.0476L42.9213 36.3136C43.1425 36.5348 43.1425 36.8935 42.9213 37.1148L40.5153 39.5197C40.294 39.7406 39.9358 39.7406 39.7146 39.5197L37.8525 37.6616C37.6348 37.4368 37.276 37.4312 37.0513 37.6489C36.8264 37.8666 36.8208 38.2254 37.0385 38.4502C37.043 38.4548 37.0477 38.4595 37.0524 38.464L38.9139 40.3221C39.5776 40.9854 40.6533 40.9854 41.3171 40.3221L43.722 37.9178C44.3856 37.2539 44.3856 36.1778 43.722 35.514L42.46 34.2498C42.29 34.0823 42.246 33.825 42.3507 33.6106C42.5999 33.114 42.8137 32.6005 42.9904 32.0738C43.0676 31.8484 43.2803 31.6977 43.5186 31.6998H45.3007C46.2396 31.6998 47.0007 30.9387 47.0007 29.9998V26.5999C47.0007 25.661 46.2396 24.8999 45.3007 24.8999Z" fill="white"/>
<path d="M36.909 23.0911C34.0305 20.2186 29.37 20.2186 26.4915 23.0911C26.2741 23.3162 26.2803 23.675 26.5055 23.8923C26.725 24.1044 27.0732 24.1044 27.2928 23.8923C29.7106 21.4418 33.6572 21.4154 36.1077 23.8333C38.5583 26.2511 38.5847 30.1977 36.1668 32.6482C36.1473 32.6681 36.1276 32.6878 36.1077 32.7073C35.8826 32.9248 35.8764 33.2835 36.0939 33.5086C36.3113 33.7337 36.67 33.7399 36.8951 33.5225C36.8998 33.5179 36.9045 33.5132 36.909 33.5086C39.7815 30.6301 39.7815 25.9696 36.909 23.0911Z" fill="white"/>
<defs>
<filter id="filter0_b_13_14" x="-441" y="-441" width="942" height="942" filterUnits="userSpaceOnUse" color-interpolation-filters="sRGB">
<feFlood flood-opacity="0" result="BackgroundImageFix"/>
<feGaussianBlur in="BackgroundImage" stdDeviation="220.5"/>
<feComposite in2="SourceAlpha" operator="in" result="effect1_backgroundBlur_13_14"/>
<feBlend mode="normal" in="SourceGraphic" in2="effect1_backgroundBlur_13_14" result="shape"/>
</filter>
</defs>
</svg>
