<svg width="60" height="60" viewBox="0 0 60 60" fill="none" xmlns="http://www.w3.org/2000/svg">
<g opacity="0.1" filter="url(#filter0_b_24_11)">
<rect width="60" height="60" fill="white"/>
</g>
<path d="M18.6676 27.7345C18.0667 27.7339 17.4905 27.4948 17.0656 27.0699C16.6407 26.645 16.4017 26.0688 16.401 25.4679V21.218C16.4025 19.941 16.9104 18.7167 17.8134 17.8138C18.7163 16.9108 19.9406 16.4029 21.2176 16.4014H22.371C22.0956 15.9251 22.0028 15.3648 22.1099 14.8252C22.2171 14.2855 22.5169 13.8032 22.9534 13.4683C23.39 13.1334 23.9334 12.9687 24.4824 13.0049C25.0315 13.0412 25.5485 13.2759 25.9373 13.6652L29.3372 17.0652C29.7617 17.4906 30.0001 18.067 30.0001 18.668C30.0001 19.2689 29.7617 19.8453 29.3372 20.2707L25.9373 23.6707C25.5485 24.0599 25.0315 24.2944 24.4826 24.3306C23.9336 24.3667 23.3903 24.202 22.9539 23.8672C22.5174 23.5323 22.2176 23.0502 22.1104 22.5106C22.0032 21.9711 22.0959 21.4109 22.3711 20.9346H21.2177C21.1426 20.9346 21.0705 20.9645 21.0174 21.0176C20.9642 21.0708 20.9344 21.1428 20.9344 21.218V25.4679C20.9337 26.0689 20.6946 26.645 20.2697 27.0699C19.8447 27.4949 19.2686 27.7339 18.6676 27.7345ZM21.2176 17.5347C20.2411 17.5358 19.3048 17.9242 18.6143 18.6147C17.9238 19.3052 17.5354 20.2414 17.5343 21.218V25.4679C17.5343 25.7685 17.6537 26.0567 17.8662 26.2693C18.0788 26.4818 18.367 26.6012 18.6676 26.6012C18.9682 26.6012 19.2564 26.4818 19.469 26.2693C19.6815 26.0567 19.8009 25.7685 19.8009 25.4679V21.218C19.8014 20.8424 19.9507 20.4823 20.2163 20.2167C20.4819 19.9511 20.842 19.8017 21.2176 19.8013H23.6302C23.7423 19.8013 23.8518 19.8345 23.945 19.8968C24.0382 19.9591 24.1108 20.0476 24.1537 20.1511C24.1966 20.2547 24.2079 20.3686 24.186 20.4785C24.1641 20.5885 24.1101 20.6894 24.0309 20.7687L23.533 21.2666C23.4267 21.3716 23.3423 21.4966 23.2845 21.6344C23.2267 21.7722 23.1967 21.92 23.1962 22.0694C23.1958 22.2188 23.2249 22.3669 23.2819 22.505C23.3388 22.6431 23.4226 22.7686 23.5282 22.8742C23.6339 22.9799 23.7594 23.0636 23.8975 23.1205C24.0356 23.1775 24.1836 23.2066 24.333 23.2061C24.4824 23.2057 24.6303 23.1757 24.7681 23.1179C24.9058 23.0601 25.0308 22.9756 25.1358 22.8693L28.5358 19.4693C28.748 19.2566 28.8672 18.9684 28.8672 18.668C28.8672 18.3675 28.748 18.0793 28.5358 17.8666L25.1358 14.4666C24.9233 14.2541 24.635 14.1347 24.3344 14.1347C24.0339 14.1347 23.7456 14.2541 23.533 14.4666C23.3205 14.6791 23.2011 14.9674 23.2011 15.268C23.2011 15.5686 23.3205 15.8568 23.533 16.0694L24.0309 16.5673C24.1102 16.6465 24.1642 16.7475 24.186 16.8574C24.2079 16.9673 24.1967 17.0812 24.1538 17.1848C24.111 17.2884 24.0383 17.3769 23.9452 17.4391C23.852 17.5014 23.7424 17.5347 23.6303 17.5347H21.2176Z" fill="white"/>
<path d="M41.3354 30.0013C41.0376 30.0022 40.7426 29.9439 40.4675 29.83C40.1923 29.716 39.9425 29.5486 39.7325 29.3375L36.3326 25.9375C35.9433 25.5488 35.7087 25.0317 35.6725 24.4827C35.6364 23.9338 35.8011 23.3904 36.136 22.9539C36.4709 22.5174 36.9531 22.2177 37.4928 22.1105C38.0324 22.0034 38.5926 22.0961 39.0688 22.3715V21.2181C39.0688 21.143 39.039 21.0709 38.9858 21.0178C38.9327 20.9646 38.8606 20.9348 38.7855 20.9348H34.5348C33.9336 20.9348 33.3571 20.696 32.932 20.2709C32.5069 19.8458 32.2681 19.2693 32.2681 18.6682C32.2681 18.067 32.5069 17.4905 32.932 17.0654C33.3571 16.6403 33.9336 16.4015 34.5348 16.4015H38.7847C40.0617 16.403 41.286 16.911 42.1889 17.8139C43.0919 18.7169 43.5998 19.9411 43.6013 21.2181V22.3715C44.0337 22.1227 44.536 22.0232 45.0305 22.0884C45.5251 22.1535 45.9845 22.3797 46.3377 22.732C46.7621 23.1574 47.0004 23.7338 47.0004 24.3347C47.0004 24.9356 46.7621 25.512 46.3377 25.9374L42.9377 29.3374C42.7277 29.5484 42.478 29.7158 42.203 29.8298C41.928 29.9437 41.6331 30.002 41.3354 30.0013ZM37.9354 23.2019C37.7113 23.2018 37.4922 23.2682 37.3058 23.3927C37.1193 23.5171 36.9741 23.6941 36.8883 23.9012C36.8025 24.1083 36.78 24.3361 36.8238 24.556C36.8675 24.7758 36.9755 24.9777 37.134 25.1361L40.534 28.5361C40.6392 28.6413 40.7642 28.7248 40.9017 28.7818C41.0392 28.8387 41.1866 28.8681 41.3354 28.8681C41.4842 28.8681 41.6316 28.8387 41.7691 28.7818C41.9066 28.7248 42.0316 28.6413 42.1368 28.5361L45.5367 25.1361C45.6442 25.0314 45.7299 24.9064 45.7887 24.7683C45.8475 24.6302 45.8782 24.4819 45.8792 24.3318C45.8802 24.1817 45.8514 24.033 45.7944 23.8941C45.7374 23.7553 45.6535 23.6292 45.5474 23.523C45.4412 23.4169 45.3151 23.3329 45.1763 23.2759C45.0375 23.2189 44.8887 23.1901 44.7386 23.1911C44.5886 23.192 44.4402 23.2228 44.3021 23.2816C44.164 23.3403 44.039 23.4259 43.9342 23.5334L43.4363 24.0313C43.357 24.1106 43.2561 24.1646 43.1461 24.1865C43.0362 24.2083 42.9222 24.1971 42.8187 24.1542C42.7151 24.1113 42.6266 24.0387 42.5643 23.9455C42.5021 23.8523 42.4688 23.7427 42.4689 23.6306V21.2181C42.4677 20.2416 42.0793 19.3054 41.3888 18.6149C40.6983 17.9244 39.7621 17.536 38.7856 17.5348H34.5348C34.2342 17.5348 33.9459 17.6542 33.7334 17.8668C33.5209 18.0793 33.4015 18.3676 33.4015 18.6682C33.4015 18.9687 33.5209 19.257 33.7334 19.4695C33.9459 19.6821 34.2342 19.8015 34.5348 19.8015H38.7847C39.1603 19.8019 39.5204 19.9513 39.786 20.2169C40.0515 20.4825 40.2009 20.8425 40.2014 21.2181V23.6306C40.2014 23.7427 40.1682 23.8523 40.1059 23.9455C40.0436 24.0387 39.9551 24.1113 39.8516 24.1542C39.748 24.1971 39.634 24.2083 39.5241 24.1865C39.4142 24.1646 39.3132 24.1106 39.2339 24.0313L38.736 23.5334C38.6309 23.4282 38.5061 23.3447 38.3687 23.2878C38.2313 23.2309 38.084 23.2017 37.9352 23.2019H37.9354Z" fill="white"/>
<path d="M35.6683 47.0007C35.3705 47.0016 35.0755 46.9433 34.8004 46.8294C34.5252 46.7154 34.2754 46.548 34.0654 46.3369L30.6655 42.9369C30.241 42.5115 30.0026 41.9351 30.0026 41.3342C30.0026 40.7332 30.241 40.1568 30.6655 39.7314L34.0654 36.3315C34.4542 35.9421 34.9712 35.7075 35.5202 35.6712C36.0692 35.635 36.6126 35.7997 37.0491 36.1346C37.4857 36.4695 37.7855 36.9517 37.8927 37.4914C37.9998 38.031 37.9071 38.5912 37.6317 39.0675H38.7851C38.8603 39.0675 38.9323 39.0377 38.9855 38.9845C39.0386 38.9314 39.0685 38.8593 39.0685 38.7842V34.5342C39.0685 33.9331 39.3073 33.3566 39.7323 32.9315C40.1574 32.5064 40.7339 32.2676 41.3351 32.2676C41.9362 32.2676 42.5128 32.5064 42.9379 32.9315C43.3629 33.3566 43.6017 33.9331 43.6017 34.5342V38.7842C43.6002 40.0612 43.0923 41.2854 42.1893 42.1884C41.2864 43.0913 40.0621 43.5993 38.7851 43.6008H37.6317C37.8307 43.9454 37.9354 44.3363 37.9354 44.7342C37.9354 45.1321 37.8306 45.523 37.6316 45.8676C37.4326 46.2122 37.1464 46.4983 36.8018 46.6972C36.4571 46.8961 36.0662 47.0008 35.6683 47.0007ZM35.6683 36.8009C35.5194 36.8005 35.3719 36.8296 35.2343 36.8866C35.0968 36.9436 34.9719 37.0273 34.8669 37.1329L31.4669 40.5329C31.2547 40.7456 31.1355 41.0338 31.1355 41.3343C31.1355 41.6347 31.2547 41.9229 31.4669 42.1356L34.8669 45.5356C34.9721 45.6408 35.0971 45.7243 35.2346 45.7813C35.3721 45.8382 35.5194 45.8675 35.6683 45.8675C35.8171 45.8675 35.9645 45.8382 36.102 45.7813C36.2395 45.7243 36.3644 45.6408 36.4697 45.5356C36.5749 45.4304 36.6584 45.3054 36.7153 45.1679C36.7723 45.0304 36.8016 44.8831 36.8016 44.7342C36.8016 44.5854 36.7723 44.438 36.7154 44.3005C36.6584 44.163 36.5749 44.0381 36.4697 43.9329L35.9718 43.435C35.8925 43.3557 35.8385 43.2547 35.8166 43.1448C35.7947 43.0349 35.8059 42.9209 35.8488 42.8173C35.8917 42.7137 35.9644 42.6252 36.0576 42.5629C36.1508 42.5007 36.2604 42.4674 36.3725 42.4675H38.7851C39.7617 42.4663 40.6979 42.0779 41.3884 41.3874C42.0789 40.6969 42.4673 39.7607 42.4684 38.7842V34.5342C42.4684 34.2337 42.349 33.9454 42.1365 33.7329C41.9239 33.5203 41.6357 33.4009 41.3351 33.4009C41.0345 33.4009 40.7463 33.5203 40.5337 33.7329C40.3212 33.9454 40.2018 34.2337 40.2018 34.5342V38.7842C40.2013 39.1598 40.052 39.5199 39.7864 39.7854C39.5208 40.051 39.1607 40.2004 38.7851 40.2008H36.3725C36.2604 40.2008 36.1509 40.1676 36.0577 40.1053C35.9645 40.0431 35.8919 39.9546 35.849 39.851C35.8061 39.7475 35.7949 39.6335 35.8167 39.5236C35.8386 39.4137 35.8926 39.3127 35.9718 39.2335L36.4697 38.7355C36.6282 38.577 36.7361 38.3751 36.7798 38.1553C36.8235 37.9354 36.8011 37.7076 36.7153 37.5005C36.6295 37.2934 36.4843 37.1164 36.2979 36.9919C36.1115 36.8674 35.8924 36.8009 35.6683 36.8009Z" fill="white"/>
<path d="M25.4677 43.6008H21.2178C19.9408 43.5993 18.7166 43.0913 17.8136 42.1884C16.9106 41.2854 16.4027 40.0611 16.4012 38.7842V37.6308C15.9249 37.9062 15.3648 37.9989 14.8251 37.8918C14.2855 37.7846 13.8033 37.4849 13.4684 37.0484C13.1335 36.6119 12.9688 36.0686 13.0049 35.5196C13.041 34.9707 13.2756 34.4536 13.6649 34.0648L17.0648 30.6649C17.49 30.2398 18.0665 30.001 18.6677 30.001C19.2689 30.001 19.8455 30.2398 20.2706 30.6649L23.6706 34.0648C24.0589 34.4539 24.2927 34.9707 24.3284 35.5193C24.3641 36.0678 24.1994 36.6107 23.8648 37.0468C23.5302 37.4829 23.0486 37.7827 22.5096 37.8903C21.9705 37.9979 21.4107 37.906 20.9343 37.6317V38.7842C20.9343 38.8593 20.9642 38.9314 21.0173 38.9845C21.0704 39.0376 21.1425 39.0675 21.2177 39.0675H25.4676C26.0687 39.0675 26.6453 39.3063 27.0703 39.7314C27.4954 40.1565 27.7342 40.733 27.7342 41.3341C27.7342 41.9353 27.4954 42.5118 27.0703 42.9369C26.6453 43.362 26.0687 43.6008 25.4676 43.6008H25.4677ZM16.9671 35.805C17.1174 35.805 17.2616 35.8647 17.3678 35.971C17.4741 36.0773 17.5338 36.2214 17.5338 36.3717V38.7842C17.5349 39.7607 17.9233 40.6969 18.6139 41.3874C19.3044 42.0779 20.2406 42.4663 21.2171 42.4674H25.467C25.7676 42.4674 26.0559 42.348 26.2684 42.1355C26.4809 41.923 26.6003 41.6347 26.6003 41.3341C26.6003 41.0336 26.4809 40.7453 26.2684 40.5328C26.0559 40.3202 25.7676 40.2008 25.467 40.2008H21.2171C20.8415 40.2004 20.4814 40.051 20.2158 39.7854C19.9503 39.5198 19.8009 39.1597 19.8004 38.7842V36.3717C19.8004 36.2596 19.8336 36.15 19.8959 36.0568C19.9582 35.9636 20.0467 35.891 20.1503 35.8481C20.2538 35.8052 20.3678 35.794 20.4777 35.8158C20.5876 35.8377 20.6886 35.8917 20.7679 35.971L21.2658 36.4689C21.3711 36.5741 21.496 36.6576 21.6335 36.7145C21.771 36.7715 21.9184 36.8008 22.0672 36.8008C22.216 36.8008 22.3634 36.7715 22.5009 36.7146C22.6384 36.6576 22.7633 36.5741 22.8686 36.4689C22.9738 36.3637 23.0573 36.2387 23.1143 36.1012C23.1712 35.9637 23.2005 35.8164 23.2005 35.6675C23.2005 35.5187 23.1712 35.3713 23.1143 35.2338C23.0573 35.0963 22.9739 34.9714 22.8686 34.8661L19.4687 31.4662C19.256 31.2539 18.9677 31.1348 18.6673 31.1348C18.3668 31.1348 18.0786 31.2539 17.8659 31.4662L14.4659 34.8661C14.3579 34.9707 14.2717 35.0958 14.2125 35.234C14.1533 35.3722 14.1222 35.5208 14.1209 35.6711C14.1197 35.8215 14.1484 35.9706 14.2054 36.1097C14.2624 36.2489 14.3465 36.3753 14.4528 36.4817C14.5591 36.588 14.6855 36.6721 14.8246 36.7291C14.9638 36.7861 15.1128 36.8148 15.2632 36.8137C15.4136 36.8125 15.5622 36.7814 15.7004 36.7222C15.8386 36.663 15.9637 36.5769 16.0683 36.4689L16.5662 35.971C16.6189 35.9183 16.6814 35.8766 16.7502 35.8481C16.819 35.8196 16.8927 35.805 16.9671 35.805Z" fill="white"/>
<defs>
<filter id="filter0_b_24_11" x="-441" y="-441" width="942" height="942" filterUnits="userSpaceOnUse" color-interpolation-filters="sRGB">
<feFlood flood-opacity="0" result="BackgroundImageFix"/>
<feGaussianBlur in="BackgroundImage" stdDeviation="220.5"/>
<feComposite in2="SourceAlpha" operator="in" result="effect1_backgroundBlur_24_11"/>
<feBlend mode="normal" in="SourceGraphic" in2="effect1_backgroundBlur_24_11" result="shape"/>
</filter>
</defs>
</svg>
