<svg width="60" height="60" viewBox="0 0 60 60" fill="none" xmlns="http://www.w3.org/2000/svg">
<g opacity="0.1" filter="url(#filter0_b_24_12)">
<rect width="60" height="60" fill="white"/>
</g>
<path d="M30.018 46.9769C33.5365 46.9838 36.9695 45.8923 39.8379 43.8546L40.4115 44.4283C40.7086 44.7277 41.1488 44.8348 41.5502 44.7052C41.9452 44.5796 42.2363 44.2431 42.3039 43.8343L43.1261 38.9968C43.1837 38.6378 43.0654 38.2731 42.8082 38.0162C42.5509 37.7593 42.186 37.6415 41.8271 37.6995L36.9925 38.5206C36.583 38.588 36.2459 38.8794 36.1199 39.2748C35.9904 39.6763 36.0974 40.1164 36.3968 40.4135L36.5667 40.5868C31.7996 43.5384 25.648 42.9416 21.5372 39.1287C17.4264 35.3158 16.3693 29.2264 18.9546 24.2511C19.0545 24.0714 19.049 23.8517 18.9404 23.6771C18.8319 23.5025 18.6372 23.4005 18.4318 23.4106C18.2265 23.4207 18.0428 23.5412 17.9518 23.7256C15.057 29.2767 16.3304 36.0872 21.0352 40.2175C25.74 44.3477 32.6581 44.7283 37.7875 41.1389C37.9242 41.0428 38.0115 40.8911 38.0259 40.7246C38.0403 40.558 37.9804 40.3936 37.8623 40.2754L37.1828 39.6367L41.9681 38.8247H42.0078L41.215 43.6276L40.2983 42.7103C40.0983 42.5102 39.7814 42.4885 39.5559 42.6593C33.6404 47.1362 25.4113 46.9126 19.7476 42.1211C14.0839 37.3296 12.5 29.2513 15.9348 22.6758C16.0346 22.4958 16.0289 22.2758 15.92 22.1013C15.811 21.9267 15.6158 21.825 15.4103 21.8357C15.2048 21.8463 15.0212 21.9677 14.9309 22.1526C12.1769 27.4198 12.3804 33.7441 15.4674 38.8233C18.5543 43.9026 24.0743 46.9958 30.018 46.9769Z" fill="white"/>
<path d="M42.0096 17.9935C36.1578 12.1081 26.9024 11.3321 20.1524 16.1612L19.5805 15.587C19.2865 15.29 18.8514 15.1821 18.4527 15.3073C18.0541 15.4325 17.7588 15.7698 17.6875 16.1815C16.7277 21.797 17.3828 17.9743 16.8659 21.0184C16.8084 21.3773 16.9266 21.7419 17.1836 21.9988C17.4407 22.2557 17.8055 22.3735 18.1643 22.3157L22.9995 21.4947C23.4117 21.4242 23.7499 21.1292 23.8757 20.7304C24.0016 20.3317 23.8939 19.896 23.5969 19.6017L23.427 19.4318C23.6961 19.2642 23.9715 19.1068 24.2531 18.9596C29.0751 16.4568 34.963 17.3685 38.8022 21.2124C42.6414 25.0562 43.5459 30.9452 41.0373 35.7641C40.9375 35.9439 40.9429 36.1636 41.0515 36.3382C41.1601 36.5127 41.3548 36.6147 41.5601 36.6047C41.7655 36.5946 41.9492 36.474 42.0402 36.2896C44.782 31.0314 43.7965 24.6023 39.6056 20.4067C35.4147 16.2112 28.9867 15.2185 23.7254 17.9545C23.2004 18.2287 22.6936 18.5362 22.2079 18.8752C22.0706 18.9711 21.9828 19.123 21.9682 19.2898C21.9535 19.4567 22.0135 19.6214 22.132 19.7398L22.8115 20.378L17.9831 21.2059C18.4853 18.2557 18.7679 16.4618 18.7798 16.3877L19.6971 17.305C19.8983 17.5061 20.2175 17.5267 20.4429 17.3531C20.5606 17.2625 20.6773 17.177 20.8058 17.0881C26.778 12.8365 34.8861 13.2336 40.4142 18.0485C45.9423 22.8633 47.4487 30.8402 44.0571 37.3394C43.9573 37.5194 43.963 37.7394 44.072 37.914C44.181 38.0885 44.3761 38.1902 44.5817 38.1796C44.7872 38.1689 44.9708 38.0476 45.0611 37.8627C48.5101 31.2869 47.2729 23.2313 42.0096 17.9935Z" fill="white"/>
<path d="M24.334 32.5069L25.6324 33.8053C25.8535 34.0263 26.212 34.0263 26.4331 33.8053L30.5628 29.6756L32.9937 32.1065C33.2147 32.3272 33.5727 32.3272 33.7938 32.1065L36.2145 29.6909L36.7241 30.2005C36.9602 30.439 37.2816 30.5733 37.6171 30.5737C37.7262 30.5736 37.8348 30.5597 37.9404 30.5324C38.377 30.4216 38.7212 30.086 38.843 29.6524L39.5735 27.0958C39.7 26.6525 39.5763 26.1755 39.2502 25.8495C38.9242 25.5236 38.4471 25.4 38.0038 25.5267L35.4478 26.2566C35.0153 26.3803 34.6806 26.7235 34.5678 27.1589C34.455 27.5943 34.581 28.0569 34.8991 28.375L35.4144 28.8902L33.394 30.9055L30.9625 28.4746C30.7414 28.2536 30.383 28.2536 30.1619 28.4746L26.0328 32.6043L24.7344 31.3059C24.5132 31.0848 24.1548 31.0848 23.9337 31.3059L22.069 33.1705V24.345C22.069 24.0322 21.8155 23.7787 21.5028 23.7787C21.19 23.7787 20.9365 24.0322 20.9365 24.345V36.2362C20.9365 36.5489 21.19 36.8025 21.5028 36.8025H37.924C38.2367 36.8025 38.4902 36.5489 38.4902 36.2362C38.4902 35.9235 38.2367 35.67 37.924 35.67H22.069V34.7719L24.334 32.5069ZM35.6641 27.4435C35.6748 27.3956 35.7117 27.358 35.7592 27.3461L38.3141 26.6162C38.3622 26.6022 38.414 26.6155 38.4493 26.6509C38.4847 26.6862 38.498 26.738 38.484 26.7861L37.7541 29.341C37.7406 29.3869 37.7041 29.4225 37.6578 29.4348C37.6115 29.447 37.5621 29.4342 37.5276 29.401L35.6992 27.5726C35.6647 27.5392 35.6512 27.4897 35.6641 27.4435Z" fill="white"/>
<defs>
<filter id="filter0_b_24_12" x="-441" y="-441" width="942" height="942" filterUnits="userSpaceOnUse" color-interpolation-filters="sRGB">
<feFlood flood-opacity="0" result="BackgroundImageFix"/>
<feGaussianBlur in="BackgroundImage" stdDeviation="220.5"/>
<feComposite in2="SourceAlpha" operator="in" result="effect1_backgroundBlur_24_12"/>
<feBlend mode="normal" in="SourceGraphic" in2="effect1_backgroundBlur_24_12" result="shape"/>
</filter>
</defs>
</svg>
