<svg width="60" height="60" viewBox="0 0 60 60" fill="none" xmlns="http://www.w3.org/2000/svg">
<g opacity="0.1" filter="url(#filter0_b_24_13)">
<rect width="60" height="60" fill="white"/>
</g>
<path d="M16.7846 41.8726C17.0993 41.9281 17.3992 41.7189 17.455 41.4046C17.511 41.0902 17.3014 40.79 16.987 40.7342C13.6085 40.1336 11.1563 37.2027 11.1563 33.7653C11.1563 29.8621 14.3317 26.6868 18.2348 26.6868C19.1657 26.6868 20.0552 26.8678 20.8701 27.1959L20.5172 27.9022C19.8091 27.6255 19.0398 27.4719 18.2348 27.4719C14.7647 27.4719 11.9415 30.2951 11.9415 33.7653C11.9415 37.2354 14.7647 40.0585 18.2348 40.0585C21.5099 40.0585 24.2075 37.5434 24.5004 34.3434H25.2889C25.0317 37.5268 22.6699 40.1676 19.4826 40.7342C19.1683 40.7901 18.9587 41.0902 19.0146 41.4046C19.0644 41.6848 19.3082 41.8816 19.5832 41.8816C19.6168 41.8816 19.6509 41.8787 19.685 41.8726C22.9238 41.2968 25.4292 38.8805 26.212 35.8113C26.5729 36.1441 27.0217 36.3829 27.5191 36.4884V37.6699H27.0126C26.6933 37.6699 26.4345 37.9287 26.4345 38.2481C26.4345 38.5675 26.6933 38.8263 27.0126 38.8263H29.1819C29.5013 38.8263 29.7601 38.5675 29.7601 38.2481C29.7601 37.9287 29.5013 37.6699 29.1819 37.6699H28.6755V36.4884C29.934 36.2215 30.8812 35.1021 30.8812 33.7652C30.8812 33.1422 30.6755 32.5663 30.3284 32.102L37.1671 24.5275L37.8189 26.2727C34.978 27.5728 32.9993 30.4422 32.9993 33.7652C32.9993 38.3058 36.6935 42 41.2341 42C45.7748 42 49.4689 38.3058 49.4689 33.7652C49.4689 29.2245 45.7748 25.5304 41.2341 25.5304C40.4243 25.5304 39.6416 25.6485 38.9018 25.8673L36.9226 20.5674H40.2351C40.4636 21.1237 41.0106 21.5168 41.6482 21.5168C41.7719 21.5168 41.8726 21.6174 41.8726 21.7412C41.8726 21.8649 41.7719 21.9656 41.6482 21.9656H40.9444C40.1022 21.9656 39.4169 22.6509 39.4169 23.4931C39.4169 24.3353 40.1022 25.0205 40.9444 25.0205H41.6482C43.4565 25.0205 44.9277 23.5494 44.9277 21.7411C44.9277 19.9328 43.4565 18.4617 41.6482 18.4617C41.0106 18.4617 40.4636 18.8547 40.2351 19.4109H36.0895C35.6942 19.4109 35.4051 19.8076 35.5479 20.1914L36.1343 21.7616H24.3433L23.9752 20.7759C24.2097 20.6304 24.4093 20.4278 24.55 20.1802C24.6426 20.0172 24.8167 19.9158 25.0043 19.9158H27.4628C28.1432 19.9158 28.6067 19.2256 28.3504 18.5959L28.3504 18.5958C27.9554 17.6264 27.0237 17 25.9768 17H20.0537C19.2638 17 18.6212 17.6427 18.6212 18.4326C18.6212 19.8646 19.7862 21.0296 21.2183 21.0296H22.8356L23.3124 22.3064L21.3883 26.1583C20.4165 25.7538 19.3514 25.5301 18.2349 25.5301C13.6942 25.5304 10 29.2246 10 33.7653C10 37.7641 12.8533 41.1738 16.7846 41.8726ZM41.2341 26.6868C45.1373 26.6868 48.3126 29.8621 48.3126 33.7653C48.3126 37.6684 45.1373 40.8438 41.2341 40.8438C37.331 40.8438 34.1556 37.6684 34.1556 33.7653C34.1556 30.9377 35.8223 28.4925 38.2247 27.3594L38.5003 28.0975C36.3958 29.1168 34.9409 31.2742 34.9409 33.7653C34.9409 37.2354 37.7641 40.0585 41.2342 40.0585C44.1495 40.0585 46.6642 38.0814 47.3496 35.2504C47.4248 34.9401 47.2342 34.6276 46.9238 34.5524C46.6134 34.477 46.301 34.668 46.2258 34.9782C45.6665 37.2886 43.6139 38.9021 41.2342 38.9021C38.4018 38.9021 36.0973 36.5976 36.0973 33.7652C36.0973 31.7699 37.2415 30.038 38.9075 29.1877L40.1408 32.49C39.7815 32.7985 39.5531 33.2556 39.5531 33.7653C39.5531 34.6922 40.3072 35.4463 41.2342 35.4463C42.1612 35.4463 42.9154 34.6923 42.9154 33.7653C42.9154 32.8383 42.1612 32.0842 41.2342 32.0842C41.2307 32.0842 41.2272 32.0844 41.2237 32.0844L39.9902 28.7813C40.3888 28.6818 40.8053 28.6282 41.2343 28.6282C43.6139 28.6282 45.6666 30.2418 46.2259 32.5521C46.3011 32.8623 46.6134 33.053 46.9239 32.978C47.2342 32.9028 47.4249 32.5904 47.3497 32.28C46.6643 29.4489 44.1495 27.4718 41.2343 27.4718C40.6631 27.4718 40.1102 27.5496 39.5838 27.6929L39.3076 26.9531C39.9202 26.7797 40.5665 26.6868 41.2341 26.6868ZM41.2341 33.2406C41.5235 33.2406 41.759 33.476 41.759 33.7653C41.759 34.0547 41.5235 34.2901 41.2341 34.2901C40.9448 34.2901 40.7094 34.0547 40.7094 33.7653C40.7094 33.476 40.9448 33.2406 41.2341 33.2406ZM21.9039 27.7139C23.7911 28.8624 25.1012 30.8687 25.2896 33.1872H24.5004C24.3162 31.1757 23.1821 29.4357 21.5512 28.42L21.9039 27.7139ZM19.8134 33.1871C19.7342 32.9715 19.6116 32.7767 19.4569 32.6127L21.0318 29.4599C22.2862 30.2776 23.1628 31.6274 23.3384 33.1871H19.8134ZM18.2348 33.2406C18.5241 33.2406 18.7596 33.476 18.7596 33.7653C18.7596 34.0547 18.5241 34.2901 18.2348 34.2901C17.9454 34.2901 17.71 34.0547 17.71 33.7653C17.71 33.476 17.9454 33.2406 18.2348 33.2406ZM18.2348 38.9022C15.4024 38.9022 13.0979 36.5977 13.0979 33.7653C13.0979 30.9327 15.4024 28.6282 18.2348 28.6282C18.8542 28.6282 19.4483 28.7385 19.9987 28.9403L18.4228 32.095C18.361 32.088 18.2983 32.0842 18.2348 32.0842C17.3079 32.0842 16.5537 32.8383 16.5537 33.7653C16.5537 34.6923 17.3078 35.4463 18.2348 35.4463C18.9587 35.4463 19.5772 34.9864 19.8134 34.3434H23.3384C23.05 36.9046 20.8718 38.9022 18.2348 38.9022ZM28.6755 35.2849V33.7653C28.6755 33.4459 28.4167 33.1871 28.0973 33.1871C27.778 33.1871 27.5192 33.4459 27.5192 33.7653V35.2849C26.9066 35.051 26.4697 34.459 26.4697 33.7653C26.4697 32.8678 27.1999 32.1377 28.0973 32.1377C28.9948 32.1377 29.7249 32.8679 29.7249 33.7653C29.7249 34.459 29.288 35.051 28.6755 35.2849ZM41.6482 19.6182C42.8189 19.6182 43.7713 20.5706 43.7713 21.7413C43.7713 22.9121 42.8189 23.8644 41.6482 23.8644H40.9444C40.7398 23.8644 40.5733 23.6979 40.5733 23.4933C40.5733 23.2886 40.7398 23.1221 40.9444 23.1221H41.6482C42.4095 23.1221 43.0289 22.5027 43.0289 21.7414C43.0289 20.9801 42.4095 20.3607 41.6482 20.3607C41.4435 20.3607 41.277 20.1942 41.277 19.9895C41.277 19.7847 41.4435 19.6182 41.6482 19.6182ZM36.566 22.9182L36.7113 23.307L29.4597 31.3388C29.0567 31.1116 28.5921 30.9814 28.0974 30.9814C27.9944 30.9814 27.8929 30.9874 27.7928 30.9984L24.7752 22.9182H36.566V22.9182ZM19.7774 18.4329C19.7774 18.2805 19.9013 18.1566 20.0536 18.1566H25.9767C26.446 18.1566 26.873 18.386 27.1319 18.7598H25.0043C24.4016 18.7598 23.8423 19.0853 23.5446 19.6092C23.4519 19.7723 23.2778 19.8737 23.0901 19.8737H21.2181C20.4238 19.8736 19.7774 19.2273 19.7774 18.4329ZM23.8653 23.7874L26.6943 31.3623C26.5208 31.464 26.3592 31.5836 26.2123 31.719C25.6636 29.5811 24.2755 27.7763 22.4219 26.6771L23.8653 23.7874Z" fill="white"/>
<defs>
<filter id="filter0_b_24_13" x="-441" y="-441" width="942" height="942" filterUnits="userSpaceOnUse" color-interpolation-filters="sRGB">
<feFlood flood-opacity="0" result="BackgroundImageFix"/>
<feGaussianBlur in="BackgroundImage" stdDeviation="220.5"/>
<feComposite in2="SourceAlpha" operator="in" result="effect1_backgroundBlur_24_13"/>
<feBlend mode="normal" in="SourceGraphic" in2="effect1_backgroundBlur_24_13" result="shape"/>
</filter>
</defs>
</svg>
