<svg width="60" height="60" viewBox="0 0 60 60" fill="none" xmlns="http://www.w3.org/2000/svg">
<g opacity="0.1" filter="url(#filter0_b_24_14)">
<rect width="60" height="60" fill="white"/>
</g>
<path d="M43.7058 35.5996C44.4335 33.8228 44.8065 31.9429 44.8065 30C44.8065 22.475 39.0654 16.1077 31.6452 15.284V13L28.6334 15.2588C21.0838 15.952 15.1935 22.3933 15.1935 30C15.1935 30.6147 15.2396 31.2311 15.3153 31.8393C13.9087 32.9448 13 34.6569 13 36.5806C13 38.919 14.3403 40.9464 16.2903 41.9472V44.2581C16.2903 45.1651 17.0285 45.9032 17.9355 45.9032H20.129C21.0361 45.9032 21.7742 45.1651 21.7742 44.2581V42.2998C24.2118 43.9351 27.0376 44.8065 30 44.8065H36.318C37.4252 46.1451 39.0983 47 40.9677 47C44.2937 47 47 44.2937 47 40.9677C47 38.6278 45.6581 36.5998 43.7058 35.5996ZM31.0556 16.3304C38.1512 16.87 43.7097 22.8748 43.7097 30C43.7097 31.8009 43.3636 33.5431 42.6891 35.1888C42.1435 35.026 41.566 34.9355 40.9677 34.9355C40.7714 34.9355 40.5773 34.9465 40.3859 34.9651C41.124 33.4219 41.5161 31.7285 41.5161 30C41.5161 24.0538 37.0599 19.1271 31.1511 18.5409L30.5484 18.4811V19.5806L27.6238 17.3871L30.5484 15.1935V16.2914L31.0556 16.3304ZM34.9635 40.4194H30C28.0801 40.4194 26.2244 39.8929 24.5984 38.9036C24.8978 38.188 25.0645 37.4038 25.0645 36.5806C25.0645 36.3953 25.053 36.2132 25.0365 36.0323H36.0323V25.0645H32.7419V34.9355H31.6452V27.2581H28.3548V34.9355H27.2581V29.4516H23.9677V33.1231C22.9795 31.717 21.4101 30.7491 19.6092 30.5775C19.5987 30.3844 19.5806 30.1919 19.5806 30C19.5806 24.6565 23.5395 20.248 28.8188 19.6541L31.6452 21.7742V19.709C36.6881 20.5025 40.4194 24.8243 40.4194 30C40.4194 31.864 39.9192 33.6835 38.9798 35.2793C36.7945 36.0454 35.1795 38.0311 34.9635 40.4194ZM25.0645 34.9355V30.5484H26.1613V34.9355H25.0645ZM30.5484 34.9355H29.4516V28.3548H30.5484V34.9355ZM33.8387 34.9355V26.1613H34.9355V34.9355H33.8387ZM16.2903 30C16.2903 23.6475 20.7273 18.1735 26.7256 16.6895L25.7955 17.3871L27.6003 18.7411C22.3215 19.8466 18.4839 24.4701 18.4839 30C18.4839 30.1908 18.5025 30.3828 18.5124 30.5747C17.7392 30.6411 17.0093 30.8555 16.3468 31.1873C16.3128 30.7924 16.2903 30.3959 16.2903 30ZM14.0968 36.5806C14.0968 33.8595 16.3112 31.6452 19.0323 31.6452C21.7534 31.6452 23.9677 33.8595 23.9677 36.5806C23.9677 38.7243 22.5913 40.5482 20.6774 41.2282V37.5765C20.8496 37.6379 21.0328 37.6774 21.2258 37.6774C22.1328 37.6774 22.871 36.9393 22.871 36.0323C22.871 35.1252 22.1328 34.3871 21.2258 34.3871C20.5118 34.3871 19.9086 34.8472 19.6815 35.4839H18.3824C18.1559 34.8472 17.5527 34.3871 16.8387 34.3871C15.9317 34.3871 15.1935 35.1252 15.1935 36.0323C15.1935 36.9393 15.9317 37.6774 16.8387 37.6774C17.0317 37.6774 17.2149 37.6379 17.3871 37.5765V41.2282C15.4732 40.5482 14.0968 38.7243 14.0968 36.5806ZM18.4839 36.5806H19.5806V41.4838C19.4002 41.5041 19.2176 41.5161 19.0323 41.5161C18.8469 41.5161 18.6643 41.5041 18.4839 41.4838V36.5806ZM20.6774 36.0323C20.6774 35.7301 20.9236 35.4839 21.2258 35.4839C21.528 35.4839 21.7742 35.7301 21.7742 36.0323C21.7742 36.3344 21.528 36.5806 21.2258 36.5806C20.9236 36.5806 20.6774 36.3344 20.6774 36.0323ZM17.3871 36.0323C17.3871 36.3344 17.1409 36.5806 16.8387 36.5806C16.5365 36.5806 16.2903 36.3344 16.2903 36.0323C16.2903 35.7301 16.5365 35.4839 16.8387 35.4839C17.1409 35.4839 17.3871 35.7301 17.3871 36.0323ZM20.129 44.8065H17.9355C17.6333 44.8065 17.3871 44.5602 17.3871 44.2581V42.3793C17.9108 42.5279 18.4614 42.6129 19.0323 42.6129C19.6031 42.6129 20.1537 42.5279 20.6774 42.3793V44.2581C20.6774 44.5602 20.4312 44.8065 20.129 44.8065ZM30 43.7097C27.3156 43.7097 24.7519 42.9386 22.5282 41.4871C23.1402 41.0495 23.6678 40.5027 24.0807 39.8721C25.8663 40.9453 27.8986 41.5161 30 41.5161H34.9635C35.0347 42.3003 35.2579 43.0401 35.6018 43.7097H30ZM38.2631 45.0911L38.4298 43.7563C38.5894 42.4791 39.6807 41.5161 40.9677 41.5161C42.2548 41.5161 43.3461 42.4791 43.5057 43.7563L43.6724 45.0911C42.8948 45.6033 41.9664 45.9032 40.9677 45.9032C39.9691 45.9032 39.0407 45.6033 38.2631 45.0911ZM39.871 39.3226C39.871 38.7177 40.3629 38.2258 40.9677 38.2258C41.5726 38.2258 42.0645 38.7177 42.0645 39.3226C42.0645 39.9275 41.5726 40.4194 40.9677 40.4194C40.3629 40.4194 39.871 39.9275 39.871 39.3226ZM44.6688 44.2219L44.5937 43.6208C44.4374 42.3678 43.6526 41.3264 42.5811 40.7966C42.9381 40.4062 43.1613 39.8918 43.1613 39.3226C43.1613 38.1128 42.1775 37.129 40.9677 37.129C39.758 37.129 38.7742 38.1128 38.7742 39.3226C38.7742 39.8918 38.9974 40.4062 39.3538 40.7961C38.2823 41.3258 37.4981 42.3672 37.3413 43.6203L37.2661 44.2213C36.5011 43.3521 36.0323 42.2148 36.0323 40.9677C36.0323 38.2466 38.2466 36.0323 40.9677 36.0323C43.6888 36.0323 45.9032 38.2466 45.9032 40.9677C45.9032 42.2148 45.4344 43.3521 44.6688 44.2219Z" fill="white"/>
<defs>
<filter id="filter0_b_24_14" x="-441" y="-441" width="942" height="942" filterUnits="userSpaceOnUse" color-interpolation-filters="sRGB">
<feFlood flood-opacity="0" result="BackgroundImageFix"/>
<feGaussianBlur in="BackgroundImage" stdDeviation="220.5"/>
<feComposite in2="SourceAlpha" operator="in" result="effect1_backgroundBlur_24_14"/>
<feBlend mode="normal" in="SourceGraphic" in2="effect1_backgroundBlur_24_14" result="shape"/>
</filter>
</defs>
</svg>
