<svg width="60" height="60" viewBox="0 0 60 60" fill="none" xmlns="http://www.w3.org/2000/svg">
<g opacity="0.1" filter="url(#filter0_b_24_15)">
<rect width="60" height="60" fill="white"/>
</g>
<path d="M42.9889 44.2643H40.6807V37.8043C40.6807 37.521 40.451 37.2914 40.1677 37.2914C39.8844 37.2914 39.6548 37.521 39.6548 37.8043V44.2643H20.1625V39.708C20.1625 39.1656 20.3967 38.6497 20.8049 38.2925L21.9919 37.254C25.8982 33.8357 30.9082 31.9535 36.099 31.9535H37.7741C38.811 31.9535 39.6548 32.797 39.6548 33.8341V35.4299C39.6548 35.7132 39.8844 35.9431 40.1677 35.9431C40.451 35.9431 40.6807 35.7132 40.6807 35.4299V33.8341C40.6807 32.3716 39.5944 31.1582 38.1864 30.9572L39.7597 26.2855L40.6754 26.4775C40.783 26.5002 40.8914 26.5114 40.9993 26.5114C41.3547 26.5114 41.7013 26.3899 41.9838 26.1608C42.3518 25.862 42.5627 25.419 42.5627 24.945V23.3351C42.5627 22.279 41.7034 21.42 40.6476 21.42H33.6712C32.6154 21.42 31.7563 22.279 31.7563 23.3351C31.7563 24.0718 32.2797 24.7162 33.0007 24.8676L36.0523 25.5077L34.1999 31.0087C31.2807 31.2565 28.4508 32.0712 25.8638 33.3965C25.5025 32.7009 25.1661 31.9796 24.8619 31.245C23.577 28.1424 22.8966 24.9223 22.8936 21.9324C22.8934 21.6494 22.6637 21.42 22.3807 21.42C22.3807 21.42 22.3804 21.42 22.3801 21.42C22.0971 21.4202 21.8674 21.6502 21.8677 21.9335C21.8707 25.0564 22.5783 28.4121 23.914 31.6376C24.2317 32.405 24.5837 33.1586 24.9618 33.8851C24.4662 34.1685 23.9812 34.4715 23.507 34.7928C23.0822 33.9853 22.6883 33.1465 22.3342 32.2918C20.7481 28.4618 20.0159 24.4529 20.1924 20.8218C20.2522 20.8264 20.312 20.8293 20.3721 20.8293C20.9785 20.8293 21.5849 20.5983 22.0464 20.1369L22.4357 19.7478L23.2507 20.5628C23.4819 20.7941 23.7855 20.9097 24.0891 20.9097C24.3927 20.9097 24.6964 20.7941 24.9273 20.5628L25.8734 19.617C26.0975 19.393 26.2206 19.0955 26.2206 18.7785C26.2206 18.4618 26.0975 18.1644 25.8734 17.9403L21.0212 13.0884C20.7975 12.8644 20.4997 12.741 20.183 12.741C19.8663 12.741 19.5686 12.8644 19.3446 13.0881L18.3987 14.0342C17.9362 14.4965 17.9362 15.2487 18.3987 15.7109L19.6981 17.0103C19.5197 17.743 19.3846 18.5016 19.2925 19.2811L16.6227 16.6113C16.2379 16.2265 16.0259 15.7146 16.0259 15.1704V12.513C16.0259 12.2296 15.7963 12 15.513 12C15.2296 12 15 12.2296 15 12.513V15.1704C15 15.9889 15.3188 16.7582 15.8975 17.3368L18.6975 20.1369C18.8457 20.2851 19.0092 20.4093 19.1827 20.5099C18.951 24.3632 19.7061 28.6268 21.3863 32.6846C21.7702 33.6114 22.1991 34.5207 22.6635 35.3936C22.2023 35.7381 21.7524 36.1004 21.3163 36.482L20.1294 37.5205C19.4984 38.0724 19.1365 38.8698 19.1365 39.708V44.2643H16.8283C16.2345 44.2643 15.7512 44.7476 15.7512 45.3415V45.9228C15.7512 46.5169 16.2345 47 16.8283 47H42.9889C43.583 47 44.0661 46.5169 44.0661 45.9228V45.3415C44.0661 44.7476 43.583 44.2643 42.9889 44.2643ZM19.124 14.7595L20.0701 13.8137C20.1088 13.7749 20.1529 13.7669 20.183 13.7669C20.2132 13.7669 20.2573 13.7749 20.296 13.8137L25.1479 18.6656C25.1866 18.7043 25.1946 18.7484 25.1946 18.7785C25.1946 18.8087 25.1866 18.8528 25.1479 18.8915L24.2021 19.8376C24.1399 19.8998 24.0384 19.8998 23.9762 19.8376L19.1243 14.9854C19.0618 14.9232 19.0618 14.8217 19.124 14.7595ZM21.7102 19.0223L21.3211 19.4114C21.0327 19.6998 20.645 19.8282 20.2674 19.7988C20.3323 19.1395 20.4279 18.4944 20.5561 17.8682L21.7102 19.0223ZM32.7822 23.3351C32.7822 22.8448 33.1809 22.4462 33.6715 22.4462H40.6476C41.1378 22.4462 41.5368 22.8448 41.5368 23.3351V24.9453C41.5368 25.1087 41.4639 25.2615 41.3371 25.3645C41.2102 25.4673 41.0457 25.5074 40.8858 25.4737L33.2114 23.8636C32.9628 23.8115 32.7822 23.5893 32.7822 23.3351ZM37.0633 25.7199L38.7485 26.0735L37.114 30.9275H36.099C35.8336 30.9275 35.569 30.9337 35.3046 30.943L37.0633 25.7199ZM43.0402 45.9228C43.0402 45.9511 43.0172 45.9741 42.9889 45.9741H16.8283C16.8 45.9741 16.7771 45.9511 16.7771 45.9228V45.3415C16.7771 45.3132 16.8 45.2902 16.8283 45.2902H40.1672H40.1677H40.1685H42.9892C43.0172 45.2902 43.0404 45.3132 43.0404 45.3415V45.9228H43.0402Z" fill="white"/>
<path d="M29.4153 40.4562C29.1331 40.4829 28.9261 40.7331 28.9531 41.0154C28.9782 41.2808 29.2017 41.4798 29.4631 41.4798C29.4794 41.4798 29.4957 41.479 29.5123 41.4776C31.4341 41.295 32.8835 39.6997 32.8835 37.767C32.8835 35.7117 31.2114 34.0395 29.156 34.0395C27.101 34.0395 25.4286 35.7117 25.4286 37.767C25.4286 38.6962 25.7738 39.5801 26.3875 40.2605L26.1074 40.5914C25.9933 40.5564 25.8726 40.5371 25.7471 40.5371H23.0867C22.4082 40.5371 21.856 41.0894 21.856 41.7679V42.5887C21.856 43.2673 22.4082 43.8192 23.0867 43.8192H25.7471C26.4259 43.8192 26.9779 43.2673 26.9779 42.5887V41.7679C26.9779 41.5922 26.9402 41.4253 26.8737 41.2739L27.4799 40.558C27.4799 40.558 27.4799 40.5577 27.4802 40.5577C27.4802 40.5577 27.4802 40.5577 27.4802 40.5574L29.5619 38.0984C29.7451 37.8821 29.7181 37.5584 29.5018 37.3753C29.2855 37.1923 28.9619 37.2193 28.779 37.4353L27.0585 39.4677C26.6708 38.9902 26.4548 38.3929 26.4548 37.7667C26.4548 36.2772 27.6665 35.0652 29.1563 35.0652C30.6458 35.0652 31.8578 36.2772 31.8578 37.7667C31.8576 39.1678 30.8076 40.3241 29.4153 40.4562ZM25.952 42.5887C25.952 42.7017 25.8601 42.7935 25.7471 42.7935H23.0867C22.9738 42.7935 22.8819 42.7017 22.8819 42.5887V41.7679C22.8819 41.6549 22.9738 41.5631 23.0867 41.5631H25.7471C25.8035 41.5631 25.8545 41.586 25.8916 41.6229C25.8916 41.6232 25.8919 41.6232 25.8921 41.6234C25.929 41.6605 25.952 41.7115 25.952 41.7679V42.5887Z" fill="white"/>
<defs>
<filter id="filter0_b_24_15" x="-441" y="-441" width="942" height="942" filterUnits="userSpaceOnUse" color-interpolation-filters="sRGB">
<feFlood flood-opacity="0" result="BackgroundImageFix"/>
<feGaussianBlur in="BackgroundImage" stdDeviation="220.5"/>
<feComposite in2="SourceAlpha" operator="in" result="effect1_backgroundBlur_24_15"/>
<feBlend mode="normal" in="SourceGraphic" in2="effect1_backgroundBlur_24_15" result="shape"/>
</filter>
</defs>
</svg>
