<svg width="60" height="60" viewBox="0 0 60 60" fill="none" xmlns="http://www.w3.org/2000/svg">
<g opacity="0.1" filter="url(#filter0_b_24_16)">
<rect width="60" height="60" fill="white"/>
</g>
<path d="M15.5833 47H42.4167C42.4933 47 42.5691 46.9849 42.6399 46.9556C42.7107 46.9263 42.775 46.8833 42.8291 46.8292C42.8833 46.775 42.9263 46.7107 42.9556 46.6399C42.9849 46.5691 43 46.4933 43 46.4167V44.6667C42.9998 44.6202 42.9941 44.574 42.983 44.5289L42.9835 44.5288L42.8941 44.1614C43.8407 43.4841 44.5631 42.5392 44.9684 41.4481C45.3736 40.3569 45.4432 39.1695 45.1681 38.0385C44.8929 36.9076 44.2858 35.8847 43.4247 35.1016C42.5635 34.3185 41.4878 33.811 40.3359 33.6442L37.8885 23.5826C38.5372 23.439 39.1312 23.1124 39.6001 22.6415L41.4209 20.8208C41.6849 20.5566 41.8332 20.1985 41.8332 19.825C41.8332 19.4515 41.6848 19.0934 41.4207 18.8293C41.1566 18.5652 40.7985 18.4168 40.425 18.4168C40.0515 18.4168 39.6934 18.5651 39.4292 18.8292L37.5084 20.75H35.6809C35.3883 20.3705 34.9663 20.112 34.4953 20.0239C34.0243 19.9358 33.5374 20.0242 33.1274 20.2722L32.3373 20.75H29.825L28.0635 18.9886C28.6394 18.9308 29.1733 18.6613 29.5619 18.2323C29.9504 17.8034 30.1659 17.2455 30.1667 16.6667V14.9167C30.1667 14.5424 30.0767 14.1735 29.9042 13.8413C29.7317 13.5091 29.4818 13.2233 29.1757 13.008C28.8695 12.7926 28.516 12.6542 28.145 12.6042C27.774 12.5543 27.3965 12.5943 27.0442 12.721C26.5657 12.2571 25.9249 11.9984 25.2584 12H25.2063C24.66 11.9982 24.1241 12.1494 23.6593 12.4366C23.1946 12.7239 22.8196 13.1356 22.577 13.625C22.4569 13.867 22.2828 14.0782 22.0681 14.2422C21.8535 14.4061 21.6039 14.5185 21.3389 14.5707L19.5523 14.928C19.4279 14.9529 19.3151 15.0176 19.2308 15.1123C19.1465 15.207 19.0954 15.3266 19.0852 15.453C19.075 15.5794 19.1062 15.7056 19.1742 15.8127C19.2421 15.9197 19.3431 16.0017 19.4618 16.0462L21.3975 16.7721C21.8955 16.9587 22.4229 17.0541 22.9547 17.0537C23.8628 17.0525 24.7496 16.7784 25.5 16.267V16.6667C25.5002 16.7735 25.5077 16.8802 25.5224 16.986L25.253 17.2554C24.713 17.2916 24.2046 17.5225 23.8219 17.9052C23.4392 18.2879 23.2083 18.7964 23.172 19.3364L19.7078 22.8006C18.9834 23.5244 18.5545 24.4922 18.5048 25.5151C18.4552 26.538 18.7883 27.5427 19.4392 28.3333H17.9167C17.8401 28.3333 17.7642 28.3484 17.6934 28.3777C17.6227 28.4071 17.5583 28.45 17.5042 28.5042C17.45 28.5584 17.407 28.6227 17.3777 28.6934C17.3484 28.7642 17.3333 28.8401 17.3333 28.9167V31.25C17.3333 31.3266 17.3484 31.4025 17.3777 31.4732C17.407 31.544 17.45 31.6083 17.5042 31.6625C17.5583 31.7167 17.6227 31.7596 17.6934 31.7889C17.7642 31.8183 17.8401 31.8333 17.9167 31.8333H19.6667V34.0291C18.719 33.9817 17.7811 34.2387 16.9901 34.7627C16.199 35.2867 15.5965 36.05 15.2705 36.9411C14.9445 37.8322 14.9123 38.8042 15.1785 39.7149C15.4447 40.6256 15.9954 41.4272 16.75 42.0024V44.0833H15.5833C15.5067 44.0833 15.4309 44.0984 15.3601 44.1277C15.2893 44.157 15.225 44.2 15.1708 44.2542C15.1167 44.3083 15.0737 44.3727 15.0444 44.4434C15.0151 44.5142 15 44.5901 15 44.6667V46.4167C15 46.4933 15.0151 46.5691 15.0444 46.6399C15.0737 46.7107 15.1167 46.775 15.1708 46.8292C15.225 46.8833 15.2893 46.9263 15.3601 46.9556C15.4309 46.9849 15.5067 47 15.5833 47ZM20.6105 42.9167H29.2228L29.8062 44.0833H20.0272L20.6105 42.9167ZM24.9167 31.8333V31.8281L25.2136 32.0014L23.1667 34.6332V31.8333H24.9167ZM26.5438 32.1915C26.5948 32.1259 26.6313 32.0501 26.6506 31.9692C26.67 31.8884 26.6719 31.8043 26.6561 31.7227C26.6403 31.6411 26.6073 31.5637 26.5592 31.4959C26.5111 31.4281 26.4491 31.3714 26.3772 31.3295L24.4519 30.2064L26.3504 28.3079L27.9786 29.5743C28.2747 29.8046 28.5185 30.0952 28.6937 30.4269C28.8689 30.7586 28.9716 31.1238 28.9949 31.4982C29.0182 31.8726 28.9616 32.2476 28.8289 32.5985C28.6962 32.9494 28.4904 33.268 28.2251 33.5332L24.725 37.0334L23.0399 36.6964L26.5438 32.1915ZM23.8208 21.0624L26.1334 23.375L25.2083 24.3001L22.5333 21.625L23.5003 20.658C23.5913 20.8046 23.6988 20.9403 23.8208 21.0624ZM34.3968 23.7569L36.2195 31.25H34.25C33.816 31.2501 33.3842 31.3109 32.9672 31.4307L31.4416 27.6168C31.1838 26.966 30.7358 26.408 30.1561 26.0155C29.5765 25.6231 28.892 25.4144 28.192 25.4167H25.7416L27.0059 24.1524C27.4499 24.4555 27.9516 24.6639 28.4798 24.7644C29.0079 24.8649 29.5511 24.8554 30.0754 24.7366L34.3968 23.7569ZM37.216 35.3467L39.3401 44.0793C38.3223 44.0445 37.3438 43.6777 36.5539 43.0348C35.7641 42.3919 35.2062 41.5083 34.9655 40.5187C34.7248 39.5292 34.8145 38.488 35.2208 37.5542C35.6271 36.6204 36.3278 35.8451 37.216 35.3467ZM31.939 36.5V36.8637L30.75 36.5817V35.9167C30.751 34.9887 31.1201 34.0991 31.7763 33.443C32.4324 32.7868 33.3221 32.4177 34.25 32.4167H36.5033L36.787 33.5833H34.8556C34.0824 33.5842 33.341 33.8918 32.7942 34.4386C32.2474 34.9854 31.9399 35.7267 31.939 36.5ZM28.192 26.5833C28.6587 26.5818 29.115 26.721 29.5014 26.9826C29.8879 27.2442 30.1865 27.6162 30.3584 28.0501L31.8945 31.8906C31.4185 32.17 30.9955 32.531 30.6447 32.9571L30.1305 32.1858C30.1544 32.0124 30.1665 31.8376 30.1667 31.6625C30.1685 31.0817 30.0367 30.5082 29.7815 29.9864C29.5263 29.4646 29.1545 29.0085 28.6949 28.6534L27.8333 27.9832V26.5833H28.192ZM29.0501 34.3582C29.2844 34.1239 29.4873 33.8603 29.6537 33.5739L29.9729 34.0527C29.7156 34.6404 29.5829 35.2751 29.5833 35.9167V36.3049L27.5788 35.8294L29.0501 34.3582ZM26.6667 26.5833V27.0758L26.0335 26.5833H26.6667ZM22.1917 37.7166L24.4209 38.1624L24.8668 40.3916L24.4078 40.8506L22.1786 37.7297L22.1917 37.7166ZM25.9125 40.9958C25.9804 40.9279 26.0305 40.8443 26.0583 40.7524C26.0861 40.6605 26.0908 40.5631 26.072 40.4689L25.5499 37.8584L26.6097 36.7986L31.9368 38.0623L31.9194 41.75H25.1583L25.9125 40.9958ZM31.1105 44.0833L30.5272 42.9167H31.9167V44.0833H31.1105ZM33.0833 42.3361L33.1054 37.6667H33.1056V36.5C33.1062 36.036 33.2907 35.5912 33.6188 35.2631C33.9469 34.9351 34.3917 34.7505 34.8556 34.75H36.0003C35.2755 35.2932 34.6872 35.9979 34.2821 36.8081C33.877 37.6183 33.6663 38.5118 33.6667 39.4176C33.667 40.3234 33.8784 41.2167 34.2842 42.0266C34.6899 42.8365 35.2787 43.5407 36.004 44.0833H33.0833V42.3361ZM40.5418 44.0833L35.5756 23.6667H36.7082L41.6744 44.0833H40.5418ZM44.1667 39.4167C44.167 40.0779 44.0267 40.7317 43.7549 41.3346C43.4832 41.9374 43.0862 42.4755 42.5905 42.9131L40.6389 34.8899C41.6478 35.1424 42.5433 35.7252 43.1826 36.5456C43.8219 37.3659 44.1683 38.3766 44.1667 39.4167ZM37.75 21.9167C37.8266 21.9167 37.9024 21.9016 37.9732 21.8723C38.044 21.843 38.1083 21.8 38.1625 21.7458L40.2542 19.6541C40.2995 19.6089 40.361 19.5835 40.425 19.5835C40.489 19.5836 40.5504 19.609 40.5957 19.6543C40.641 19.6996 40.6664 19.761 40.6665 19.825C40.6665 19.8891 40.6411 19.9505 40.5959 19.9958L38.7751 21.8166C38.559 22.0339 38.3018 22.2063 38.0186 22.3236C37.7354 22.4409 37.4318 22.5008 37.1252 22.5H36.0003C36.0589 22.32 36.0889 22.1318 36.0891 21.9424C36.0891 21.9338 36.0886 21.9253 36.0885 21.9167H37.75ZM29 16.6667C29 16.9761 28.8771 17.2728 28.6583 17.4916C28.4395 17.7104 28.1427 17.8333 27.8333 17.8333C27.5239 17.8333 27.2272 17.7104 27.0084 17.4916C26.7896 17.2728 26.6667 16.9761 26.6667 16.6667V16.6666H26.6667C26.8214 16.6666 26.9697 16.6051 27.0791 16.4958L28.0749 15.5H29V16.6667ZM28.8421 14.3333H27.8333C27.6786 14.3334 27.5303 14.3948 27.4209 14.5042L26.6667 15.2583V14.9167C26.6664 14.6599 26.751 14.4103 26.9072 14.2065C27.0634 14.0028 27.2825 13.8563 27.5304 13.7898C27.7784 13.7233 28.0414 13.7405 28.2786 13.8388C28.5158 13.9371 28.7139 14.1109 28.8421 14.3333ZM21.8072 15.6797L21.7718 15.6664C22.1698 15.5582 22.5404 15.3668 22.8591 15.1048C23.1777 14.8429 23.4373 14.5164 23.6205 14.1468C23.7669 13.8516 23.993 13.6033 24.2733 13.43C24.5536 13.2568 24.8768 13.1656 25.2063 13.1667H25.2584C25.5417 13.1661 25.8184 13.2516 26.052 13.4119C25.7435 13.7755 25.5545 14.2253 25.5104 14.7001C25.0692 15.2249 24.4767 15.6007 23.8139 15.7761C23.151 15.9514 22.4502 15.9178 21.8072 15.6797ZM25.3999 18.4167C25.54 18.4163 25.6788 18.4437 25.8083 18.4973C25.9378 18.551 26.0553 18.6297 26.1541 18.7291L29.1709 21.7458C29.225 21.8 29.2893 21.843 29.3601 21.8723C29.4309 21.9016 29.5067 21.9167 29.5833 21.9167H32.5C32.6064 21.9167 32.7108 21.8876 32.8018 21.8325L33.731 21.2706C33.8501 21.1986 33.9862 21.1595 34.1254 21.1574C34.2645 21.1553 34.4017 21.1902 34.5229 21.2586C34.6442 21.3269 34.745 21.4263 34.8152 21.5464C34.8854 21.6666 34.9224 21.8033 34.9224 21.9424C34.923 22.0843 34.8751 22.2221 34.7866 22.3329C34.698 22.4438 34.5743 22.521 34.4358 22.5517L29.8174 23.5988C29.3655 23.7013 28.895 23.6875 28.4498 23.5589C28.0046 23.4303 27.5993 23.191 27.2716 22.8633L24.6457 20.2375C24.4966 20.0883 24.395 19.8982 24.3538 19.6913C24.3127 19.4845 24.3338 19.27 24.4145 19.0751C24.4952 18.8802 24.632 18.7136 24.8074 18.5964C24.9827 18.4792 25.189 18.4167 25.3999 18.4167ZM20.5328 23.6255L21.7083 22.45L24.3834 25.125L23.9209 25.5875C23.8624 25.646 23.817 25.7163 23.7877 25.7936C23.7585 25.871 23.746 25.9537 23.7511 26.0363C23.7563 26.1188 23.7789 26.1993 23.8175 26.2725C23.8562 26.3456 23.9099 26.4097 23.9752 26.4605L25.4223 27.586L23.4099 29.5985L21.1338 28.2708C20.7429 28.0428 20.4096 27.7282 20.1595 27.3511C19.9094 26.9741 19.7492 26.5446 19.6911 26.0959C19.6331 25.6472 19.6787 25.1911 19.8247 24.7628C19.9706 24.3346 20.2128 23.9455 20.5328 23.6255ZM18.5 29.5H20.9256L22.9256 30.6667H18.5V29.5ZM22 31.8333V34.506L20.8333 34.2292V31.8333H22ZM16.1667 38.4701C16.1667 37.9751 16.2788 37.4864 16.4945 37.0408C16.7103 36.5952 17.0241 36.2042 17.4125 35.8972C17.8009 35.5902 18.2537 35.3751 18.7371 35.268C19.2205 35.1609 19.7218 35.1646 20.2035 35.2789L22.2811 35.7718L21.5617 36.6967L21.0042 37.2542C20.9066 37.3518 20.8467 37.4809 20.8353 37.6186C20.8239 37.7562 20.8617 37.8934 20.942 38.0057L23.6165 41.75H19.4465C18.5769 41.749 17.7433 41.4031 17.1284 40.7883C16.5135 40.1734 16.1676 39.3397 16.1667 38.4701ZM17.9167 42.6454C18.363 42.8089 18.8328 42.8993 19.3079 42.9131L18.7228 44.0833H17.9167V42.6454ZM16.1667 45.25H41.8333V45.8333H16.1667V45.25Z" fill="white"/>
<defs>
<filter id="filter0_b_24_16" x="-441" y="-441" width="942" height="942" filterUnits="userSpaceOnUse" color-interpolation-filters="sRGB">
<feFlood flood-opacity="0" result="BackgroundImageFix"/>
<feGaussianBlur in="BackgroundImage" stdDeviation="220.5"/>
<feComposite in2="SourceAlpha" operator="in" result="effect1_backgroundBlur_24_16"/>
<feBlend mode="normal" in="SourceGraphic" in2="effect1_backgroundBlur_24_16" result="shape"/>
</filter>
</defs>
</svg>
