<svg width="60" height="60" viewBox="0 0 60 60" fill="none" xmlns="http://www.w3.org/2000/svg">
<g opacity="0.1" filter="url(#filter0_b_24_17)">
<rect width="60" height="60" fill="white"/>
</g>
<path d="M18.748 28.3827C18.7584 28.7394 18.7746 29.0974 18.7967 29.4534C17.9052 30.0901 17.3672 31.1192 17.3672 32.2344C17.3672 33.772 18.3676 35.0846 19.8026 35.5098C21.2705 40.7715 24.8983 47 30.3555 47C32.4672 47 34.5438 45.9982 36.361 44.1029C36.6222 43.8303 36.6131 43.3976 36.3406 43.1363C36.0681 42.8751 35.6353 42.8842 35.3741 43.1567C33.821 44.7766 32.0856 45.6328 30.3555 45.6328C25.508 45.6328 22.2519 39.455 21.0162 34.7612C20.9472 34.499 20.7297 34.3024 20.4619 34.26C19.4609 34.1017 18.7344 33.2499 18.7344 32.2344C18.7344 31.607 19.0186 31.0255 19.495 30.6403L21.4793 32.017C21.6422 35.1297 23.8775 37.6666 27.0288 38.2515C27.4646 38.3323 27.9001 38.2997 28.3047 38.1724V40.4375C28.3047 40.815 28.6107 41.1211 28.9883 41.1211H30.3555C30.733 41.1211 31.0391 40.815 31.0391 40.4375C31.0391 40.06 30.733 39.7539 30.3555 39.7539H29.6719V37.2129C29.7117 37.1613 29.7504 37.1086 29.7869 37.0541C29.9156 36.8609 30.1227 36.7501 30.3551 36.75H30.3553C30.5878 36.75 30.7953 36.8609 30.9244 37.0545C31.5408 37.9781 32.6229 38.448 33.6812 38.2514C36.8329 37.6645 39.0686 35.1278 39.2317 32.017L41.216 30.6403C41.6923 31.0255 41.9766 31.607 41.9766 32.2344C41.9766 33.2499 41.25 34.1017 40.249 34.26C39.9812 34.3024 39.7637 34.499 39.6947 34.7612C39.3788 35.961 38.985 37.1141 38.5242 38.1885C38.3754 38.5355 38.536 38.9374 38.883 39.0862C39.2299 39.2351 39.6318 39.0744 39.7807 38.7274C40.2163 37.7117 40.5949 36.631 40.9081 35.5097C42.3434 35.0848 43.3438 33.7721 43.3438 32.2344C43.3438 31.1192 42.8057 30.0901 41.9142 29.4534C41.9364 29.0974 41.9525 28.7394 41.9629 28.3827C43.6657 27.445 44.7109 26.0306 44.7109 24.0312C44.7109 19.0496 38.209 12 30.3555 12C26.5046 12 22.8375 13.6963 20.0763 16.2939C17.9793 18.2698 16 21.2255 16 24.0312C16 26.0269 17.0415 27.4429 18.748 28.3827ZM18.2853 21.9805C20.5964 21.9805 22.7692 22.8804 24.4033 24.5146C24.5989 24.7101 24.8928 24.7686 25.1483 24.6628C25.4038 24.5569 25.5703 24.3077 25.5703 24.0312C25.5703 21.0681 24.1052 18.3347 21.691 16.6889C22.433 16.0683 23.2265 15.5232 24.0616 15.0607C26.4104 16.9978 27.9266 19.7997 28.2414 22.8157C28.3545 23.8984 29.2634 24.7148 30.3555 24.7148C31.4476 24.7148 32.3564 23.8984 32.4696 22.8157C32.7843 19.7998 34.3006 16.9978 36.6495 15.0607C37.4845 15.5232 38.278 16.0683 39.02 16.689C36.6058 18.3347 35.1406 21.0682 35.1406 24.0312C35.1406 24.3077 35.3071 24.557 35.5626 24.6628C35.8185 24.7688 36.1124 24.7097 36.3076 24.5147C37.9418 22.8804 40.1145 21.9805 42.4257 21.9805H42.9442C43.2092 22.7112 43.3438 23.3995 43.3438 24.0312C43.3438 24.2691 43.3232 24.4975 43.2838 24.7148H42.4257C40.8451 24.7148 39.3589 25.3301 38.2407 26.4477L36.1427 28.5456C34.5436 28.7276 32.6476 28.8164 30.3555 28.8164C28.0634 28.8164 26.1674 28.7276 24.5683 28.5456L22.4701 26.4475C21.352 25.3301 19.8658 24.7148 18.2853 24.7148H17.4272C17.3878 24.4975 17.3672 24.2691 17.3672 24.0312C17.3672 23.3995 17.5018 22.7113 17.7668 21.9805H18.2853ZM28.0433 13.5925L29.7867 16.2073C29.9135 16.3975 30.1269 16.5117 30.3555 16.5117C30.584 16.5117 30.7974 16.3975 30.9242 16.2073L32.6677 13.5925C33.5611 13.7657 34.4471 14.0386 35.3148 14.4081C32.9561 16.549 31.4405 19.5055 31.1097 22.6737C31.0696 23.058 30.7453 23.3477 30.3555 23.3477C29.9656 23.3477 29.6413 23.0579 29.6012 22.6738C29.2705 19.5055 27.7549 16.549 25.3961 14.4081C26.2638 14.0387 27.1496 13.7658 28.0433 13.5925ZM40.5444 29.4422L38.289 31.007C35.3878 31.5504 32.3659 31.5508 30.3555 31.5508C28.345 31.5508 25.3231 31.5504 22.422 31.007L20.1666 29.4422C20.1571 29.2955 20.1487 29.1485 20.1413 29.0012C21.2423 29.3934 22.5719 29.6815 24.1704 29.8757C25.8726 30.0828 27.8958 30.1835 30.3555 30.1835C33.4547 30.1835 37.6413 30.0442 40.5696 29.0012C40.5622 29.1486 40.5538 29.2955 40.5444 29.4422ZM18.0409 26.082H18.2853C19.5008 26.082 20.6438 26.5553 21.5035 27.4144L22.2678 28.1787C20.798 27.861 18.9764 27.2698 18.0409 26.082ZM33.4313 36.9073C32.9196 37.0021 32.3691 36.7564 32.0617 36.2956C31.6803 35.7241 31.0424 35.3828 30.3553 35.3828C30.3551 35.3828 30.3549 35.3828 30.3547 35.3828C29.6676 35.383 29.03 35.7244 28.6498 36.2951C28.344 36.7523 27.8067 37.0053 27.2784 36.9073C24.9443 36.474 23.2383 34.7062 22.8981 32.4768C25.6855 32.918 28.4592 32.918 30.3555 32.918C32.2518 32.918 35.0254 32.918 37.8128 32.4768C37.4724 34.7047 35.7658 36.4725 33.4313 36.9073ZM38.4431 28.1787L39.2072 27.4146C40.0671 26.5553 41.2101 26.0813 42.4257 26.0813H42.67C41.7354 27.2681 39.9163 27.8603 38.4431 28.1787ZM42.319 20.6153C40.273 20.6366 38.3242 21.266 36.6814 22.4202C37.1115 20.4522 38.3193 18.7246 40.0598 17.6431C40.9782 18.567 41.7537 19.5888 42.319 20.6153ZM31.1562 13.3949L30.3555 14.5959L29.5547 13.3949C29.8222 13.3768 30.0896 13.3672 30.3555 13.3672C30.6213 13.3672 30.8887 13.3768 31.1562 13.3949ZM20.6512 17.6431C22.3916 18.7246 23.5994 20.4522 24.0295 22.4202C22.3867 21.266 20.438 20.6366 18.392 20.6153C18.9572 19.5889 19.7327 18.5671 20.6512 17.6431Z" fill="white"/>
<path d="M28.9883 42.4883C28.6107 42.4883 28.3047 42.7943 28.3047 43.1719C28.3047 43.5494 28.6107 43.8555 28.9883 43.8555H31.7227C32.1002 43.8555 32.4062 43.5494 32.4062 43.1719C32.4062 42.7943 32.1002 42.4883 31.7227 42.4883H28.9883Z" fill="white"/>
<path d="M37.7383 41.873C38.1158 41.873 38.4219 41.567 38.4219 41.1895C38.4219 40.8119 38.1158 40.5059 37.7383 40.5059C37.3607 40.5059 37.0547 40.8119 37.0547 41.1895C37.0547 41.567 37.3607 41.873 37.7383 41.873Z" fill="white"/>
<defs>
<filter id="filter0_b_24_17" x="-441" y="-441" width="942" height="942" filterUnits="userSpaceOnUse" color-interpolation-filters="sRGB">
<feFlood flood-opacity="0" result="BackgroundImageFix"/>
<feGaussianBlur in="BackgroundImage" stdDeviation="220.5"/>
<feComposite in2="SourceAlpha" operator="in" result="effect1_backgroundBlur_24_17"/>
<feBlend mode="normal" in="SourceGraphic" in2="effect1_backgroundBlur_24_17" result="shape"/>
</filter>
</defs>
</svg>
