<svg width="40" height="38" viewBox="0 0 40 38" fill="none" xmlns="http://www.w3.org/2000/svg">
<ellipse opacity="0.1" cx="20" cy="18.8966" rx="20" ry="18.6207" fill="#C4C4C4"/>
<path d="M23.9396 12.3794H17.0604C14.8214 12.3794 13 14.0752 13 16.1597V22.5647C13 24.6491 14.8214 26.3449 17.0604 26.3449H23.9398C26.1786 26.3449 28 24.6491 28 22.5647V16.1597C28 14.0752 26.1786 12.3794 23.9396 12.3794V12.3794ZM27.1206 22.5647C27.1206 24.1976 25.6937 25.5262 23.9396 25.5262H17.0604C15.3063 25.5262 13.8794 24.1976 13.8794 22.5647V16.1597C13.8794 14.5267 15.3063 13.1981 17.0604 13.1981H23.9398C25.6937 13.1981 27.1206 14.5267 27.1206 16.1597V22.5647Z" fill="white"/>
<path d="M20.4999 15.5435C18.2383 15.5435 16.3984 17.2564 16.3984 19.362C16.3984 21.4677 18.2383 23.1806 20.4999 23.1806C22.7615 23.1806 24.6013 21.4677 24.6013 19.362C24.6013 17.2564 22.7615 15.5435 20.4999 15.5435ZM20.4999 22.3619C18.7233 22.3619 17.2778 21.0162 17.2778 19.362C17.2778 17.708 18.7233 16.3622 20.4999 16.3622C22.2766 16.3622 23.722 17.708 23.722 19.362C23.722 21.0162 22.2766 22.3619 20.4999 22.3619Z" fill="white"/>
<path d="M24.6995 14.1873C24.0312 14.1873 23.4876 14.6935 23.4876 15.3156C23.4876 15.9378 24.0312 16.4441 24.6995 16.4441C25.3678 16.4441 25.9116 15.9378 25.9116 15.3156C25.9116 14.6934 25.3678 14.1873 24.6995 14.1873ZM24.6995 15.6252C24.5162 15.6252 24.3669 15.4863 24.3669 15.3156C24.3669 15.1448 24.5162 15.006 24.6995 15.006C24.883 15.006 25.0322 15.1448 25.0322 15.3156C25.0322 15.4863 24.883 15.6252 24.6995 15.6252Z" fill="white"/>
</svg>
