<svg width="40" height="38" viewBox="0 0 40 38" fill="none" xmlns="http://www.w3.org/2000/svg">
<ellipse opacity="0.1" cx="20" cy="18.8966" rx="20" ry="18.6207" fill="#C4C4C4"/>
<path d="M26.183 15.723L25.9447 15.8805L25.9594 16.1659C26.1667 20.1746 22.8655 24.1573 17.7175 24.1573C16.8102 24.1573 15.9411 24.0236 15.1289 23.7751C16.1359 23.5754 17.0612 23.164 17.843 22.5948L19.0434 21.7209L17.5589 21.6907C16.7283 21.6738 16.0051 21.2958 15.5462 20.7351C15.7651 20.7203 15.9805 20.6878 16.1875 20.6349L16.1574 19.6593C15.2319 19.4829 14.5045 18.8576 14.2245 18.0628C14.469 18.1201 14.723 18.1536 14.9805 18.1582L16.7903 18.1901L15.2536 17.2337C14.5661 16.8059 14.1231 16.0796 14.1231 15.2789C14.1231 15.0856 14.1489 14.8977 14.1978 14.7166C15.781 16.2413 17.9498 17.2164 20.3604 17.3262L21.0269 17.3565L20.8689 16.7083C20.8299 16.5482 20.8119 16.3711 20.8119 16.1738C20.8119 14.9047 21.9259 13.8103 23.385 13.8103C24.1314 13.8103 24.809 14.105 25.2791 14.5713L25.4652 14.7559L25.7229 14.7079C25.8252 14.6888 25.9267 14.6677 26.0274 14.6445C26.0134 14.6526 25.9994 14.6606 25.9852 14.6684L26.2868 15.602C26.3156 15.5986 26.3444 15.595 26.3731 15.5913C26.3109 15.6364 26.2476 15.6803 26.183 15.723Z" stroke="white"/>
</svg>
