<svg width="42" height="60" viewBox="0 0 42 60" fill="none" xmlns="http://www.w3.org/2000/svg">
<path d="M0.755859 36V33.8555L4.85156 29.6279C5.33789 29.0947 5.70117 28.6113 5.94141 28.1777C6.1875 27.7441 6.31055 27.3809 6.31055 27.0879C6.31055 26.5664 6.19922 26.1826 5.97656 25.9365C5.75977 25.6904 5.4375 25.5674 5.00977 25.5674C4.74609 25.5674 4.51172 25.6494 4.30664 25.8135C4.10156 25.9775 3.94043 26.2002 3.82324 26.4814C3.70605 26.7627 3.64746 27.0732 3.64746 27.4131H0.483398C0.483398 26.6162 0.679688 25.8838 1.07227 25.2158C1.4707 24.542 2.02148 24.0088 2.72461 23.6162C3.42773 23.2178 4.21875 23.0186 5.09766 23.0186C6.5332 23.0186 7.62012 23.3467 8.3584 24.0029C9.09668 24.6533 9.46582 25.5908 9.46582 26.8154C9.46582 27.4131 9.3457 27.9814 9.10547 28.5205C8.86523 29.0537 8.52832 29.584 8.09473 30.1113C7.66113 30.6387 7.06055 31.292 6.29297 32.0713L4.92188 33.4512H9.75586V36H0.755859ZM20.2412 30.8496C20.2412 31.9922 20.0508 32.9648 19.6699 33.7676C19.2949 34.5645 18.7676 35.165 18.0879 35.5693C17.4082 35.9736 16.623 36.1758 15.7324 36.1758C14.8301 36.1758 14.0361 35.9736 13.3506 35.5693C12.6709 35.165 12.1406 34.5645 11.7598 33.7676C11.3848 32.9707 11.1973 31.998 11.1973 30.8496V28.3799C11.1973 27.2314 11.3848 26.2559 11.7598 25.4531C12.1406 24.6504 12.668 24.0469 13.3418 23.6426C14.0215 23.2324 14.8125 23.0273 15.7148 23.0273C16.6055 23.0273 17.3906 23.2324 18.0703 23.6426C18.7559 24.0527 19.2891 24.6592 19.6699 25.4619C20.0508 26.2646 20.2412 27.2373 20.2412 28.3799V30.8496ZM17.0859 27.9844C17.0859 27.1289 16.9658 26.5137 16.7256 26.1387C16.4912 25.7637 16.1543 25.5762 15.7148 25.5762C15.2637 25.5762 14.9209 25.7637 14.6865 26.1387C14.458 26.5078 14.3438 27.123 14.3438 27.9844V31.2275C14.3438 32.1064 14.4609 32.7275 14.6953 33.0908C14.9297 33.4482 15.2754 33.627 15.7324 33.627C16.1719 33.627 16.5059 33.4453 16.7344 33.082C16.9688 32.7188 17.0859 32.1006 17.0859 31.2275V27.9844ZM21.709 36V33.8555L25.8047 29.6279C26.291 29.0947 26.6543 28.6113 26.8945 28.1777C27.1406 27.7441 27.2637 27.3809 27.2637 27.0879C27.2637 26.5664 27.1523 26.1826 26.9297 25.9365C26.7129 25.6904 26.3906 25.5674 25.9629 25.5674C25.6992 25.5674 25.4648 25.6494 25.2598 25.8135C25.0547 25.9775 24.8936 26.2002 24.7764 26.4814C24.6592 26.7627 24.6006 27.0732 24.6006 27.4131H21.4365C21.4365 26.6162 21.6328 25.8838 22.0254 25.2158C22.4238 24.542 22.9746 24.0088 23.6777 23.6162C24.3809 23.2178 25.1719 23.0186 26.0508 23.0186C27.4863 23.0186 28.5732 23.3467 29.3115 24.0029C30.0498 24.6533 30.4189 25.5908 30.4189 26.8154C30.4189 27.4131 30.2988 27.9814 30.0586 28.5205C29.8184 29.0537 29.4814 29.584 29.0479 30.1113C28.6143 30.6387 28.0137 31.292 27.2461 32.0713L25.875 33.4512H30.709V36H21.709ZM41.1943 30.8496C41.1943 31.9922 41.0039 32.9648 40.623 33.7676C40.248 34.5645 39.7207 35.165 39.041 35.5693C38.3613 35.9736 37.5762 36.1758 36.6855 36.1758C35.7832 36.1758 34.9893 35.9736 34.3037 35.5693C33.624 35.165 33.0938 34.5645 32.7129 33.7676C32.3379 32.9707 32.1504 31.998 32.1504 30.8496V28.3799C32.1504 27.2314 32.3379 26.2559 32.7129 25.4531C33.0938 24.6504 33.6211 24.0469 34.2949 23.6426C34.9746 23.2324 35.7656 23.0273 36.668 23.0273C37.5586 23.0273 38.3438 23.2324 39.0234 23.6426C39.709 24.0527 40.2422 24.6592 40.623 25.4619C41.0039 26.2646 41.1943 27.2373 41.1943 28.3799V30.8496ZM38.0391 27.9844C38.0391 27.1289 37.9189 26.5137 37.6787 26.1387C37.4443 25.7637 37.1074 25.5762 36.668 25.5762C36.2168 25.5762 35.874 25.7637 35.6396 26.1387C35.4111 26.5078 35.2969 27.123 35.2969 27.9844V31.2275C35.2969 32.1064 35.4141 32.7275 35.6484 33.0908C35.8828 33.4482 36.2285 33.627 36.6855 33.627C37.125 33.627 37.459 33.4453 37.6875 33.082C37.9219 32.7188 38.0391 32.1006 38.0391 31.2275V27.9844Z" fill="white"/>
</svg>
